<?xml version="1.0" encoding="utf-8" standalone="no"?>
<!DOCTYPE svg PUBLIC "-//W3C//DTD SVG 1.1//EN"
  "http://www.w3.org/Graphics/SVG/1.1/DTD/svg11.dtd">
<svg xmlns:xlink="http://www.w3.org/1999/xlink" width="392.025469pt" height="385.190625pt" viewBox="0 0 392.025469 385.190625" xmlns="http://www.w3.org/2000/svg" version="1.1">
 <metadata>
  <rdf:RDF xmlns:dc="http://purl.org/dc/elements/1.1/" xmlns:cc="http://creativecommons.org/ns#" xmlns:rdf="http://www.w3.org/1999/02/22-rdf-syntax-ns#">
   <cc:Work>
    <dc:type rdf:resource="http://purl.org/dc/dcmitype/StillImage"/>
    <dc:date>2025-07-24T23:05:24.966140</dc:date>
    <dc:format>image/svg+xml</dc:format>
    <dc:creator>
     <cc:Agent>
      <dc:title>Matplotlib v3.10.3, https://matplotlib.org/</dc:title>
     </cc:Agent>
    </dc:creator>
   </cc:Work>
  </rdf:RDF>
 </metadata>
 <defs>
  <style type="text/css">*{stroke-linejoin: round; stroke-linecap: butt}</style>
 </defs>
 <g id="figure_1">
  <g id="patch_1">
   <path d="M 0 385.190625
L 392.025469 385.190625
L 392.025469 0
L 0 0
L 0 385.190625
z
" style="fill: none"/>
  </g>
  <g id="axes_1">
   <g id="patch_2">
    <path d="M 50.025469 339.84
L 384.825469 339.84
L 384.825469 7.2
L 50.025469 7.2
L 50.025469 339.84
z
" style="fill: none"/>
   </g>
   <g id="matplotlib.axis_1">
    <g id="xtick_1">
     <g id="line2d_1">
      <defs>
       <path id="m991d9754ba" d="M 0 0
L 0 6
" style="stroke: #ffffff; stroke-width: 1.25"/>
      </defs>
      <g>
       <use xlink:href="#m991d9754ba" x="89.88155" y="339.84" style="fill: #ffffff; stroke: #ffffff; stroke-width: 1.25"/>
      </g>
     </g>
     <g id="text_1">
      <!-- $\mathdefault{10^{-9}}$ -->
      <g style="fill: #ffffff" transform="translate(78.99155 360.68375) scale(0.11 -0.11)">
       <defs>
        <path id="ArialMT-31" d="M 2384 0
L 1822 0
L 1822 3584
Q 1619 3391 1289 3197
Q 959 3003 697 2906
L 697 3450
Q 1169 3672 1522 3987
Q 1875 4303 2022 4600
L 2384 4600
L 2384 0
z
" transform="scale(0.015625)"/>
        <path id="ArialMT-30" d="M 266 2259
Q 266 3072 433 3567
Q 600 4063 929 4331
Q 1259 4600 1759 4600
Q 2128 4600 2406 4451
Q 2684 4303 2865 4023
Q 3047 3744 3150 3342
Q 3253 2941 3253 2259
Q 3253 1453 3087 958
Q 2922 463 2592 192
Q 2263 -78 1759 -78
Q 1097 -78 719 397
Q 266 969 266 2259
z
M 844 2259
Q 844 1131 1108 757
Q 1372 384 1759 384
Q 2147 384 2411 759
Q 2675 1134 2675 2259
Q 2675 3391 2411 3762
Q 2147 4134 1753 4134
Q 1366 4134 1134 3806
Q 844 3388 844 2259
z
" transform="scale(0.015625)"/>
        <path id="ArialMT-2212" d="M 3381 1997
L 356 1997
L 356 2522
L 3381 2522
L 3381 1997
z
" transform="scale(0.015625)"/>
        <path id="ArialMT-39" d="M 350 1059
L 891 1109
Q 959 728 1153 556
Q 1347 384 1650 384
Q 1909 384 2104 503
Q 2300 622 2425 820
Q 2550 1019 2634 1356
Q 2719 1694 2719 2044
Q 2719 2081 2716 2156
Q 2547 1888 2255 1720
Q 1963 1553 1622 1553
Q 1053 1553 659 1965
Q 266 2378 266 3053
Q 266 3750 677 4175
Q 1088 4600 1706 4600
Q 2153 4600 2523 4359
Q 2894 4119 3086 3673
Q 3278 3228 3278 2384
Q 3278 1506 3087 986
Q 2897 466 2520 194
Q 2144 -78 1638 -78
Q 1100 -78 759 220
Q 419 519 350 1059
z
M 2653 3081
Q 2653 3566 2395 3850
Q 2138 4134 1775 4134
Q 1400 4134 1122 3828
Q 844 3522 844 3034
Q 844 2597 1108 2323
Q 1372 2050 1759 2050
Q 2150 2050 2401 2323
Q 2653 2597 2653 3081
z
" transform="scale(0.015625)"/>
       </defs>
       <use xlink:href="#ArialMT-31" transform="translate(0 0.99375)"/>
       <use xlink:href="#ArialMT-30" transform="translate(55.615234 0.99375)"/>
       <use xlink:href="#ArialMT-2212" transform="translate(112.972813 70.6875) scale(0.7)"/>
       <use xlink:href="#ArialMT-39" transform="translate(153.851719 70.6875) scale(0.7)"/>
      </g>
     </g>
    </g>
    <g id="xtick_2">
     <g id="line2d_2">
      <g>
       <use xlink:href="#m991d9754ba" x="157.122132" y="339.84" style="fill: #ffffff; stroke: #ffffff; stroke-width: 1.25"/>
      </g>
     </g>
     <g id="text_2">
      <!-- $\mathdefault{10^{-7}}$ -->
      <g style="fill: #ffffff" transform="translate(146.232132 360.57375) scale(0.11 -0.11)">
       <defs>
        <path id="ArialMT-37" d="M 303 3981
L 303 4522
L 3269 4522
L 3269 4084
Q 2831 3619 2401 2847
Q 1972 2075 1738 1259
Q 1569 684 1522 0
L 944 0
Q 953 541 1156 1306
Q 1359 2072 1739 2783
Q 2119 3494 2547 3981
L 303 3981
z
" transform="scale(0.015625)"/>
       </defs>
       <use xlink:href="#ArialMT-31" transform="translate(0 0.846875)"/>
       <use xlink:href="#ArialMT-30" transform="translate(55.615234 0.846875)"/>
       <use xlink:href="#ArialMT-2212" transform="translate(112.972813 70.540625) scale(0.7)"/>
       <use xlink:href="#ArialMT-37" transform="translate(153.851719 70.540625) scale(0.7)"/>
      </g>
     </g>
    </g>
    <g id="xtick_3">
     <g id="line2d_3">
      <g>
       <use xlink:href="#m991d9754ba" x="224.362713" y="339.84" style="fill: #ffffff; stroke: #ffffff; stroke-width: 1.25"/>
      </g>
     </g>
     <g id="text_3">
      <!-- $\mathdefault{10^{-5}}$ -->
      <g style="fill: #ffffff" transform="translate(213.472713 360.57375) scale(0.11 -0.11)">
       <defs>
        <path id="ArialMT-35" d="M 266 1200
L 856 1250
Q 922 819 1161 601
Q 1400 384 1738 384
Q 2144 384 2425 690
Q 2706 997 2706 1503
Q 2706 1984 2436 2262
Q 2166 2541 1728 2541
Q 1456 2541 1237 2417
Q 1019 2294 894 2097
L 366 2166
L 809 4519
L 3088 4519
L 3088 3981
L 1259 3981
L 1013 2750
Q 1425 3038 1878 3038
Q 2478 3038 2890 2622
Q 3303 2206 3303 1553
Q 3303 931 2941 478
Q 2500 -78 1738 -78
Q 1113 -78 717 272
Q 322 622 266 1200
z
" transform="scale(0.015625)"/>
       </defs>
       <use xlink:href="#ArialMT-31" transform="translate(0 0.879688)"/>
       <use xlink:href="#ArialMT-30" transform="translate(55.615234 0.879688)"/>
       <use xlink:href="#ArialMT-2212" transform="translate(112.972813 70.573438) scale(0.7)"/>
       <use xlink:href="#ArialMT-35" transform="translate(153.851719 70.573438) scale(0.7)"/>
      </g>
     </g>
    </g>
    <g id="xtick_4">
     <g id="line2d_4">
      <g>
       <use xlink:href="#m991d9754ba" x="291.603294" y="339.84" style="fill: #ffffff; stroke: #ffffff; stroke-width: 1.25"/>
      </g>
     </g>
     <g id="text_4">
      <!-- $\mathdefault{10^{-3}}$ -->
      <g style="fill: #ffffff" transform="translate(280.713294 360.68375) scale(0.11 -0.11)">
       <defs>
        <path id="ArialMT-33" d="M 269 1209
L 831 1284
Q 928 806 1161 595
Q 1394 384 1728 384
Q 2125 384 2398 659
Q 2672 934 2672 1341
Q 2672 1728 2419 1979
Q 2166 2231 1775 2231
Q 1616 2231 1378 2169
L 1441 2663
Q 1497 2656 1531 2656
Q 1891 2656 2178 2843
Q 2466 3031 2466 3422
Q 2466 3731 2256 3934
Q 2047 4138 1716 4138
Q 1388 4138 1169 3931
Q 950 3725 888 3313
L 325 3413
Q 428 3978 793 4289
Q 1159 4600 1703 4600
Q 2078 4600 2393 4439
Q 2709 4278 2876 4000
Q 3044 3722 3044 3409
Q 3044 3113 2884 2869
Q 2725 2625 2413 2481
Q 2819 2388 3044 2092
Q 3269 1797 3269 1353
Q 3269 753 2831 336
Q 2394 -81 1725 -81
Q 1122 -81 723 278
Q 325 638 269 1209
z
" transform="scale(0.015625)"/>
       </defs>
       <use xlink:href="#ArialMT-31" transform="translate(0 0.99375)"/>
       <use xlink:href="#ArialMT-30" transform="translate(55.615234 0.99375)"/>
       <use xlink:href="#ArialMT-2212" transform="translate(112.972813 70.6875) scale(0.7)"/>
       <use xlink:href="#ArialMT-33" transform="translate(153.851719 70.6875) scale(0.7)"/>
      </g>
     </g>
    </g>
    <g id="xtick_5">
     <g id="line2d_5">
      <g>
       <use xlink:href="#m991d9754ba" x="358.843876" y="339.84" style="fill: #ffffff; stroke: #ffffff; stroke-width: 1.25"/>
      </g>
     </g>
     <g id="text_5">
      <!-- $\mathdefault{10^{-1}}$ -->
      <g style="fill: #ffffff" transform="translate(347.953876 360.68375) scale(0.11 -0.11)">
       <use xlink:href="#ArialMT-31" transform="translate(0 0.99375)"/>
       <use xlink:href="#ArialMT-30" transform="translate(55.615234 0.99375)"/>
       <use xlink:href="#ArialMT-2212" transform="translate(112.972813 70.6875) scale(0.7)"/>
       <use xlink:href="#ArialMT-31" transform="translate(153.851719 70.6875) scale(0.7)"/>
      </g>
     </g>
    </g>
    <g id="text_6">
     <!-- mole fraction [dimensionless] -->
     <g style="fill: #ffffff" transform="translate(140.062969 375.605625) scale(0.12 -0.12)">
      <defs>
       <path id="ArialMT-6d" d="M 422 0
L 422 3319
L 925 3319
L 925 2853
Q 1081 3097 1340 3245
Q 1600 3394 1931 3394
Q 2300 3394 2536 3241
Q 2772 3088 2869 2813
Q 3263 3394 3894 3394
Q 4388 3394 4653 3120
Q 4919 2847 4919 2278
L 4919 0
L 4359 0
L 4359 2091
Q 4359 2428 4304 2576
Q 4250 2725 4106 2815
Q 3963 2906 3769 2906
Q 3419 2906 3187 2673
Q 2956 2441 2956 1928
L 2956 0
L 2394 0
L 2394 2156
Q 2394 2531 2256 2718
Q 2119 2906 1806 2906
Q 1569 2906 1367 2781
Q 1166 2656 1075 2415
Q 984 2175 984 1722
L 984 0
L 422 0
z
" transform="scale(0.015625)"/>
       <path id="ArialMT-6f" d="M 213 1659
Q 213 2581 725 3025
Q 1153 3394 1769 3394
Q 2453 3394 2887 2945
Q 3322 2497 3322 1706
Q 3322 1066 3130 698
Q 2938 331 2570 128
Q 2203 -75 1769 -75
Q 1072 -75 642 372
Q 213 819 213 1659
z
M 791 1659
Q 791 1022 1069 705
Q 1347 388 1769 388
Q 2188 388 2466 706
Q 2744 1025 2744 1678
Q 2744 2294 2464 2611
Q 2184 2928 1769 2928
Q 1347 2928 1069 2612
Q 791 2297 791 1659
z
" transform="scale(0.015625)"/>
       <path id="ArialMT-6c" d="M 409 0
L 409 4581
L 972 4581
L 972 0
L 409 0
z
" transform="scale(0.015625)"/>
       <path id="ArialMT-65" d="M 2694 1069
L 3275 997
Q 3138 488 2766 206
Q 2394 -75 1816 -75
Q 1088 -75 661 373
Q 234 822 234 1631
Q 234 2469 665 2931
Q 1097 3394 1784 3394
Q 2450 3394 2872 2941
Q 3294 2488 3294 1666
Q 3294 1616 3291 1516
L 816 1516
Q 847 969 1125 678
Q 1403 388 1819 388
Q 2128 388 2347 550
Q 2566 713 2694 1069
z
M 847 1978
L 2700 1978
Q 2663 2397 2488 2606
Q 2219 2931 1791 2931
Q 1403 2931 1139 2672
Q 875 2413 847 1978
z
" transform="scale(0.015625)"/>
       <path id="ArialMT-20" transform="scale(0.015625)"/>
       <path id="ArialMT-66" d="M 556 0
L 556 2881
L 59 2881
L 59 3319
L 556 3319
L 556 3672
Q 556 4006 616 4169
Q 697 4388 901 4523
Q 1106 4659 1475 4659
Q 1713 4659 2000 4603
L 1916 4113
Q 1741 4144 1584 4144
Q 1328 4144 1222 4034
Q 1116 3925 1116 3625
L 1116 3319
L 1763 3319
L 1763 2881
L 1116 2881
L 1116 0
L 556 0
z
" transform="scale(0.015625)"/>
       <path id="ArialMT-72" d="M 416 0
L 416 3319
L 922 3319
L 922 2816
Q 1116 3169 1280 3281
Q 1444 3394 1641 3394
Q 1925 3394 2219 3213
L 2025 2691
Q 1819 2813 1613 2813
Q 1428 2813 1281 2702
Q 1134 2591 1072 2394
Q 978 2094 978 1738
L 978 0
L 416 0
z
" transform="scale(0.015625)"/>
       <path id="ArialMT-61" d="M 2588 409
Q 2275 144 1986 34
Q 1697 -75 1366 -75
Q 819 -75 525 192
Q 231 459 231 875
Q 231 1119 342 1320
Q 453 1522 633 1644
Q 813 1766 1038 1828
Q 1203 1872 1538 1913
Q 2219 1994 2541 2106
Q 2544 2222 2544 2253
Q 2544 2597 2384 2738
Q 2169 2928 1744 2928
Q 1347 2928 1158 2789
Q 969 2650 878 2297
L 328 2372
Q 403 2725 575 2942
Q 747 3159 1072 3276
Q 1397 3394 1825 3394
Q 2250 3394 2515 3294
Q 2781 3194 2906 3042
Q 3031 2891 3081 2659
Q 3109 2516 3109 2141
L 3109 1391
Q 3109 606 3145 398
Q 3181 191 3288 0
L 2700 0
Q 2613 175 2588 409
z
M 2541 1666
Q 2234 1541 1622 1453
Q 1275 1403 1131 1340
Q 988 1278 909 1158
Q 831 1038 831 891
Q 831 666 1001 516
Q 1172 366 1500 366
Q 1825 366 2078 508
Q 2331 650 2450 897
Q 2541 1088 2541 1459
L 2541 1666
z
" transform="scale(0.015625)"/>
       <path id="ArialMT-63" d="M 2588 1216
L 3141 1144
Q 3050 572 2676 248
Q 2303 -75 1759 -75
Q 1078 -75 664 370
Q 250 816 250 1647
Q 250 2184 428 2587
Q 606 2991 970 3192
Q 1334 3394 1763 3394
Q 2303 3394 2647 3120
Q 2991 2847 3088 2344
L 2541 2259
Q 2463 2594 2264 2762
Q 2066 2931 1784 2931
Q 1359 2931 1093 2626
Q 828 2322 828 1663
Q 828 994 1084 691
Q 1341 388 1753 388
Q 2084 388 2306 591
Q 2528 794 2588 1216
z
" transform="scale(0.015625)"/>
       <path id="ArialMT-74" d="M 1650 503
L 1731 6
Q 1494 -44 1306 -44
Q 1000 -44 831 53
Q 663 150 594 308
Q 525 466 525 972
L 525 2881
L 113 2881
L 113 3319
L 525 3319
L 525 4141
L 1084 4478
L 1084 3319
L 1650 3319
L 1650 2881
L 1084 2881
L 1084 941
Q 1084 700 1114 631
Q 1144 563 1211 522
Q 1278 481 1403 481
Q 1497 481 1650 503
z
" transform="scale(0.015625)"/>
       <path id="ArialMT-69" d="M 425 3934
L 425 4581
L 988 4581
L 988 3934
L 425 3934
z
M 425 0
L 425 3319
L 988 3319
L 988 0
L 425 0
z
" transform="scale(0.015625)"/>
       <path id="ArialMT-6e" d="M 422 0
L 422 3319
L 928 3319
L 928 2847
Q 1294 3394 1984 3394
Q 2284 3394 2536 3286
Q 2788 3178 2913 3003
Q 3038 2828 3088 2588
Q 3119 2431 3119 2041
L 3119 0
L 2556 0
L 2556 2019
Q 2556 2363 2490 2533
Q 2425 2703 2258 2804
Q 2091 2906 1866 2906
Q 1506 2906 1245 2678
Q 984 2450 984 1813
L 984 0
L 422 0
z
" transform="scale(0.015625)"/>
       <path id="ArialMT-5b" d="M 434 -1272
L 434 4581
L 1675 4581
L 1675 4116
L 997 4116
L 997 -806
L 1675 -806
L 1675 -1272
L 434 -1272
z
" transform="scale(0.015625)"/>
       <path id="ArialMT-64" d="M 2575 0
L 2575 419
Q 2259 -75 1647 -75
Q 1250 -75 917 144
Q 584 363 401 755
Q 219 1147 219 1656
Q 219 2153 384 2558
Q 550 2963 881 3178
Q 1213 3394 1622 3394
Q 1922 3394 2156 3267
Q 2391 3141 2538 2938
L 2538 4581
L 3097 4581
L 3097 0
L 2575 0
z
M 797 1656
Q 797 1019 1065 703
Q 1334 388 1700 388
Q 2069 388 2326 689
Q 2584 991 2584 1609
Q 2584 2291 2321 2609
Q 2059 2928 1675 2928
Q 1300 2928 1048 2622
Q 797 2316 797 1656
z
" transform="scale(0.015625)"/>
       <path id="ArialMT-73" d="M 197 991
L 753 1078
Q 800 744 1014 566
Q 1228 388 1613 388
Q 2000 388 2187 545
Q 2375 703 2375 916
Q 2375 1106 2209 1216
Q 2094 1291 1634 1406
Q 1016 1563 777 1677
Q 538 1791 414 1992
Q 291 2194 291 2438
Q 291 2659 392 2848
Q 494 3038 669 3163
Q 800 3259 1026 3326
Q 1253 3394 1513 3394
Q 1903 3394 2198 3281
Q 2494 3169 2634 2976
Q 2775 2784 2828 2463
L 2278 2388
Q 2241 2644 2061 2787
Q 1881 2931 1553 2931
Q 1166 2931 1000 2803
Q 834 2675 834 2503
Q 834 2394 903 2306
Q 972 2216 1119 2156
Q 1203 2125 1616 2013
Q 2213 1853 2448 1751
Q 2684 1650 2818 1456
Q 2953 1263 2953 975
Q 2953 694 2789 445
Q 2625 197 2315 61
Q 2006 -75 1616 -75
Q 969 -75 630 194
Q 291 463 197 991
z
" transform="scale(0.015625)"/>
       <path id="ArialMT-5d" d="M 1363 -1272
L 122 -1272
L 122 -806
L 800 -806
L 800 4116
L 122 4116
L 122 4581
L 1363 4581
L 1363 -1272
z
" transform="scale(0.015625)"/>
      </defs>
      <use xlink:href="#ArialMT-6d"/>
      <use xlink:href="#ArialMT-6f" transform="translate(83.300781 0)"/>
      <use xlink:href="#ArialMT-6c" transform="translate(138.916016 0)"/>
      <use xlink:href="#ArialMT-65" transform="translate(161.132812 0)"/>
      <use xlink:href="#ArialMT-20" transform="translate(216.748047 0)"/>
      <use xlink:href="#ArialMT-66" transform="translate(244.53125 0)"/>
      <use xlink:href="#ArialMT-72" transform="translate(272.314453 0)"/>
      <use xlink:href="#ArialMT-61" transform="translate(305.615234 0)"/>
      <use xlink:href="#ArialMT-63" transform="translate(361.230469 0)"/>
      <use xlink:href="#ArialMT-74" transform="translate(411.230469 0)"/>
      <use xlink:href="#ArialMT-69" transform="translate(439.013672 0)"/>
      <use xlink:href="#ArialMT-6f" transform="translate(461.230469 0)"/>
      <use xlink:href="#ArialMT-6e" transform="translate(516.845703 0)"/>
      <use xlink:href="#ArialMT-20" transform="translate(572.460938 0)"/>
      <use xlink:href="#ArialMT-5b" transform="translate(600.244141 0)"/>
      <use xlink:href="#ArialMT-64" transform="translate(628.027344 0)"/>
      <use xlink:href="#ArialMT-69" transform="translate(683.642578 0)"/>
      <use xlink:href="#ArialMT-6d" transform="translate(705.859375 0)"/>
      <use xlink:href="#ArialMT-65" transform="translate(789.160156 0)"/>
      <use xlink:href="#ArialMT-6e" transform="translate(844.775391 0)"/>
      <use xlink:href="#ArialMT-73" transform="translate(900.390625 0)"/>
      <use xlink:href="#ArialMT-69" transform="translate(950.390625 0)"/>
      <use xlink:href="#ArialMT-6f" transform="translate(972.607422 0)"/>
      <use xlink:href="#ArialMT-6e" transform="translate(1028.222656 0)"/>
      <use xlink:href="#ArialMT-6c" transform="translate(1083.837891 0)"/>
      <use xlink:href="#ArialMT-65" transform="translate(1106.054688 0)"/>
      <use xlink:href="#ArialMT-73" transform="translate(1161.669922 0)"/>
      <use xlink:href="#ArialMT-73" transform="translate(1211.669922 0)"/>
      <use xlink:href="#ArialMT-5d" transform="translate(1261.669922 0)"/>
     </g>
    </g>
   </g>
   <g id="matplotlib.axis_2">
    <g id="ytick_1">
     <g id="line2d_6">
      <defs>
       <path id="m105ba0a140" d="M 0 0
L -6 0
" style="stroke: #ffffff; stroke-width: 1.25"/>
      </defs>
      <g>
       <use xlink:href="#m105ba0a140" x="50.025469" y="324.72" style="fill: #ffffff; stroke: #ffffff; stroke-width: 1.25"/>
      </g>
     </g>
     <g id="text_7">
      <!-- 0 -->
      <g style="fill: #ffffff" transform="translate(34.408438 328.656797) scale(0.11 -0.11)">
       <use xlink:href="#ArialMT-30"/>
      </g>
     </g>
    </g>
    <g id="ytick_2">
     <g id="line2d_7">
      <g>
       <use xlink:href="#m105ba0a140" x="50.025469" y="274.32" style="fill: #ffffff; stroke: #ffffff; stroke-width: 1.25"/>
      </g>
     </g>
     <g id="text_8">
      <!-- 20 -->
      <g style="fill: #ffffff" transform="translate(28.291406 278.256797) scale(0.11 -0.11)">
       <defs>
        <path id="ArialMT-32" d="M 3222 541
L 3222 0
L 194 0
Q 188 203 259 391
Q 375 700 629 1000
Q 884 1300 1366 1694
Q 2113 2306 2375 2664
Q 2638 3022 2638 3341
Q 2638 3675 2398 3904
Q 2159 4134 1775 4134
Q 1369 4134 1125 3890
Q 881 3647 878 3216
L 300 3275
Q 359 3922 746 4261
Q 1134 4600 1788 4600
Q 2447 4600 2831 4234
Q 3216 3869 3216 3328
Q 3216 3053 3103 2787
Q 2991 2522 2730 2228
Q 2469 1934 1863 1422
Q 1356 997 1212 845
Q 1069 694 975 541
L 3222 541
z
" transform="scale(0.015625)"/>
       </defs>
       <use xlink:href="#ArialMT-32"/>
       <use xlink:href="#ArialMT-30" transform="translate(55.615234 0)"/>
      </g>
     </g>
    </g>
    <g id="ytick_3">
     <g id="line2d_8">
      <g>
       <use xlink:href="#m105ba0a140" x="50.025469" y="223.92" style="fill: #ffffff; stroke: #ffffff; stroke-width: 1.25"/>
      </g>
     </g>
     <g id="text_9">
      <!-- 40 -->
      <g style="fill: #ffffff" transform="translate(28.291406 227.856797) scale(0.11 -0.11)">
       <defs>
        <path id="ArialMT-34" d="M 2069 0
L 2069 1097
L 81 1097
L 81 1613
L 2172 4581
L 2631 4581
L 2631 1613
L 3250 1613
L 3250 1097
L 2631 1097
L 2631 0
L 2069 0
z
M 2069 1613
L 2069 3678
L 634 1613
L 2069 1613
z
" transform="scale(0.015625)"/>
       </defs>
       <use xlink:href="#ArialMT-34"/>
       <use xlink:href="#ArialMT-30" transform="translate(55.615234 0)"/>
      </g>
     </g>
    </g>
    <g id="ytick_4">
     <g id="line2d_9">
      <g>
       <use xlink:href="#m105ba0a140" x="50.025469" y="173.52" style="fill: #ffffff; stroke: #ffffff; stroke-width: 1.25"/>
      </g>
     </g>
     <g id="text_10">
      <!-- 60 -->
      <g style="fill: #ffffff" transform="translate(28.291406 177.456797) scale(0.11 -0.11)">
       <defs>
        <path id="ArialMT-36" d="M 3184 3459
L 2625 3416
Q 2550 3747 2413 3897
Q 2184 4138 1850 4138
Q 1581 4138 1378 3988
Q 1113 3794 959 3422
Q 806 3050 800 2363
Q 1003 2672 1297 2822
Q 1591 2972 1913 2972
Q 2475 2972 2870 2558
Q 3266 2144 3266 1488
Q 3266 1056 3080 686
Q 2894 316 2569 119
Q 2244 -78 1831 -78
Q 1128 -78 684 439
Q 241 956 241 2144
Q 241 3472 731 4075
Q 1159 4600 1884 4600
Q 2425 4600 2770 4297
Q 3116 3994 3184 3459
z
M 888 1484
Q 888 1194 1011 928
Q 1134 663 1356 523
Q 1578 384 1822 384
Q 2178 384 2434 671
Q 2691 959 2691 1453
Q 2691 1928 2437 2201
Q 2184 2475 1800 2475
Q 1419 2475 1153 2201
Q 888 1928 888 1484
z
" transform="scale(0.015625)"/>
       </defs>
       <use xlink:href="#ArialMT-36"/>
       <use xlink:href="#ArialMT-30" transform="translate(55.615234 0)"/>
      </g>
     </g>
    </g>
    <g id="ytick_5">
     <g id="line2d_10">
      <g>
       <use xlink:href="#m105ba0a140" x="50.025469" y="123.12" style="fill: #ffffff; stroke: #ffffff; stroke-width: 1.25"/>
      </g>
     </g>
     <g id="text_11">
      <!-- 80 -->
      <g style="fill: #ffffff" transform="translate(28.291406 127.056797) scale(0.11 -0.11)">
       <defs>
        <path id="ArialMT-38" d="M 1131 2484
Q 781 2613 612 2850
Q 444 3088 444 3419
Q 444 3919 803 4259
Q 1163 4600 1759 4600
Q 2359 4600 2725 4251
Q 3091 3903 3091 3403
Q 3091 3084 2923 2848
Q 2756 2613 2416 2484
Q 2838 2347 3058 2040
Q 3278 1734 3278 1309
Q 3278 722 2862 322
Q 2447 -78 1769 -78
Q 1091 -78 675 323
Q 259 725 259 1325
Q 259 1772 486 2073
Q 713 2375 1131 2484
z
M 1019 3438
Q 1019 3113 1228 2906
Q 1438 2700 1772 2700
Q 2097 2700 2305 2904
Q 2513 3109 2513 3406
Q 2513 3716 2298 3927
Q 2084 4138 1766 4138
Q 1444 4138 1231 3931
Q 1019 3725 1019 3438
z
M 838 1322
Q 838 1081 952 856
Q 1066 631 1291 507
Q 1516 384 1775 384
Q 2178 384 2440 643
Q 2703 903 2703 1303
Q 2703 1709 2433 1975
Q 2163 2241 1756 2241
Q 1359 2241 1098 1978
Q 838 1716 838 1322
z
" transform="scale(0.015625)"/>
       </defs>
       <use xlink:href="#ArialMT-38"/>
       <use xlink:href="#ArialMT-30" transform="translate(55.615234 0)"/>
      </g>
     </g>
    </g>
    <g id="ytick_6">
     <g id="line2d_11">
      <g>
       <use xlink:href="#m105ba0a140" x="50.025469" y="72.72" style="fill: #ffffff; stroke: #ffffff; stroke-width: 1.25"/>
      </g>
     </g>
     <g id="text_12">
      <!-- 100 -->
      <g style="fill: #ffffff" transform="translate(22.174375 76.656797) scale(0.11 -0.11)">
       <use xlink:href="#ArialMT-31"/>
       <use xlink:href="#ArialMT-30" transform="translate(55.615234 0)"/>
       <use xlink:href="#ArialMT-30" transform="translate(111.230469 0)"/>
      </g>
     </g>
    </g>
    <g id="ytick_7">
     <g id="line2d_12">
      <g>
       <use xlink:href="#m105ba0a140" x="50.025469" y="22.32" style="fill: #ffffff; stroke: #ffffff; stroke-width: 1.25"/>
      </g>
     </g>
     <g id="text_13">
      <!-- 120 -->
      <g style="fill: #ffffff" transform="translate(22.174375 26.256797) scale(0.11 -0.11)">
       <use xlink:href="#ArialMT-31"/>
       <use xlink:href="#ArialMT-32" transform="translate(55.615234 0)"/>
       <use xlink:href="#ArialMT-30" transform="translate(111.230469 0)"/>
      </g>
     </g>
    </g>
    <g id="text_14">
     <!-- altitude [km] -->
     <g style="fill: #ffffff" transform="translate(15.789375 205.864687) rotate(-90) scale(0.12 -0.12)">
      <defs>
       <path id="ArialMT-75" d="M 2597 0
L 2597 488
Q 2209 -75 1544 -75
Q 1250 -75 995 37
Q 741 150 617 320
Q 494 491 444 738
Q 409 903 409 1263
L 409 3319
L 972 3319
L 972 1478
Q 972 1038 1006 884
Q 1059 663 1231 536
Q 1403 409 1656 409
Q 1909 409 2131 539
Q 2353 669 2445 892
Q 2538 1116 2538 1541
L 2538 3319
L 3100 3319
L 3100 0
L 2597 0
z
" transform="scale(0.015625)"/>
       <path id="ArialMT-6b" d="M 425 0
L 425 4581
L 988 4581
L 988 1969
L 2319 3319
L 3047 3319
L 1778 2088
L 3175 0
L 2481 0
L 1384 1697
L 988 1316
L 988 0
L 425 0
z
" transform="scale(0.015625)"/>
      </defs>
      <use xlink:href="#ArialMT-61"/>
      <use xlink:href="#ArialMT-6c" transform="translate(55.615234 0)"/>
      <use xlink:href="#ArialMT-74" transform="translate(77.832031 0)"/>
      <use xlink:href="#ArialMT-69" transform="translate(105.615234 0)"/>
      <use xlink:href="#ArialMT-74" transform="translate(127.832031 0)"/>
      <use xlink:href="#ArialMT-75" transform="translate(155.615234 0)"/>
      <use xlink:href="#ArialMT-64" transform="translate(211.230469 0)"/>
      <use xlink:href="#ArialMT-65" transform="translate(266.845703 0)"/>
      <use xlink:href="#ArialMT-20" transform="translate(322.460938 0)"/>
      <use xlink:href="#ArialMT-5b" transform="translate(350.244141 0)"/>
      <use xlink:href="#ArialMT-6b" transform="translate(378.027344 0)"/>
      <use xlink:href="#ArialMT-6d" transform="translate(428.027344 0)"/>
      <use xlink:href="#ArialMT-5d" transform="translate(511.328125 0)"/>
     </g>
    </g>
   </g>
   <g id="line2d_13">
    <path d="M 321.501876 324.72
L 317.934326 322.2
L 313.980321 319.68
L 308.49504 317.16
L 302.847727 314.64
L 296.516161 312.12
L 290.46497 309.6
L 283.446878 307.08
L 276.967241 304.56
L 264.661913 302.04
L 252.775155 299.52
L 243.106267 297
L 233.811136 294.48
L 225.621003 291.96
L 216.732746 289.44
L 214.241997 286.92
L 210.80019 284.4
L 210.425782 281.88
L 210.349735 279.36
L 210.425782 276.84
L 210.614186 274.32
L 210.910665 271.8
L 211.237163 269.28
L 211.696245 266.76
L 212.039816 264.24
L 212.474703 261.72
L 212.960912 255.42
L 213.43145 249.12
L 213.706662 242.82
L 213.947015 236.52
L 214.095251 230.22
L 214.329342 223.92
L 214.673588 217.62
L 214.898658 211.32
L 214.954387 205.02
L 214.898658 198.72
L 214.531137 186.12
L 213.493058 173.52
L 211.696245 160.92
L 209.034148 148.32
L 205.931614 135.72
L 201.223678 123.12
L 194.90635 110.52
L 188.369466 97.92
L 181.745423 85.32
L 177.363563 72.72
L 174.990607 60.12
L 172.155715 47.52
L 169.904944 34.92
L 167.242847 22.32
" clip-path="url(#p49b9d4b00e)" style="fill: none; stroke-dasharray: 1.5,2.475; stroke-dashoffset: 0; stroke: #8dd3c7; stroke-width: 1.5"/>
    <defs>
     <path id="m0fb35a867c" d="M 0 1.5
C 0.397805 1.5 0.77937 1.341951 1.06066 1.06066
C 1.341951 0.77937 1.5 0.397805 1.5 0
C 1.5 -0.397805 1.341951 -0.77937 1.06066 -1.06066
C 0.77937 -1.341951 0.397805 -1.5 0 -1.5
C -0.397805 -1.5 -0.77937 -1.341951 -1.06066 -1.06066
C -1.341951 -0.77937 -1.5 -0.397805 -1.5 0
C -1.5 0.397805 -1.341951 0.77937 -1.06066 1.06066
C -0.77937 1.341951 -0.397805 1.5 0 1.5
z
" style="stroke: #8dd3c7"/>
    </defs>
    <g clip-path="url(#p49b9d4b00e)">
     <use xlink:href="#m0fb35a867c" x="321.501876" y="324.72" style="fill: #8dd3c7; stroke: #8dd3c7"/>
     <use xlink:href="#m0fb35a867c" x="317.934326" y="322.2" style="fill: #8dd3c7; stroke: #8dd3c7"/>
     <use xlink:href="#m0fb35a867c" x="313.980321" y="319.68" style="fill: #8dd3c7; stroke: #8dd3c7"/>
     <use xlink:href="#m0fb35a867c" x="308.49504" y="317.16" style="fill: #8dd3c7; stroke: #8dd3c7"/>
     <use xlink:href="#m0fb35a867c" x="302.847727" y="314.64" style="fill: #8dd3c7; stroke: #8dd3c7"/>
     <use xlink:href="#m0fb35a867c" x="296.516161" y="312.12" style="fill: #8dd3c7; stroke: #8dd3c7"/>
     <use xlink:href="#m0fb35a867c" x="290.46497" y="309.6" style="fill: #8dd3c7; stroke: #8dd3c7"/>
     <use xlink:href="#m0fb35a867c" x="283.446878" y="307.08" style="fill: #8dd3c7; stroke: #8dd3c7"/>
     <use xlink:href="#m0fb35a867c" x="276.967241" y="304.56" style="fill: #8dd3c7; stroke: #8dd3c7"/>
     <use xlink:href="#m0fb35a867c" x="264.661913" y="302.04" style="fill: #8dd3c7; stroke: #8dd3c7"/>
     <use xlink:href="#m0fb35a867c" x="252.775155" y="299.52" style="fill: #8dd3c7; stroke: #8dd3c7"/>
     <use xlink:href="#m0fb35a867c" x="243.106267" y="297" style="fill: #8dd3c7; stroke: #8dd3c7"/>
     <use xlink:href="#m0fb35a867c" x="233.811136" y="294.48" style="fill: #8dd3c7; stroke: #8dd3c7"/>
     <use xlink:href="#m0fb35a867c" x="225.621003" y="291.96" style="fill: #8dd3c7; stroke: #8dd3c7"/>
     <use xlink:href="#m0fb35a867c" x="216.732746" y="289.44" style="fill: #8dd3c7; stroke: #8dd3c7"/>
     <use xlink:href="#m0fb35a867c" x="214.241997" y="286.92" style="fill: #8dd3c7; stroke: #8dd3c7"/>
     <use xlink:href="#m0fb35a867c" x="210.80019" y="284.4" style="fill: #8dd3c7; stroke: #8dd3c7"/>
     <use xlink:href="#m0fb35a867c" x="210.425782" y="281.88" style="fill: #8dd3c7; stroke: #8dd3c7"/>
     <use xlink:href="#m0fb35a867c" x="210.349735" y="279.36" style="fill: #8dd3c7; stroke: #8dd3c7"/>
     <use xlink:href="#m0fb35a867c" x="210.425782" y="276.84" style="fill: #8dd3c7; stroke: #8dd3c7"/>
     <use xlink:href="#m0fb35a867c" x="210.614186" y="274.32" style="fill: #8dd3c7; stroke: #8dd3c7"/>
     <use xlink:href="#m0fb35a867c" x="210.910665" y="271.8" style="fill: #8dd3c7; stroke: #8dd3c7"/>
     <use xlink:href="#m0fb35a867c" x="211.237163" y="269.28" style="fill: #8dd3c7; stroke: #8dd3c7"/>
     <use xlink:href="#m0fb35a867c" x="211.696245" y="266.76" style="fill: #8dd3c7; stroke: #8dd3c7"/>
     <use xlink:href="#m0fb35a867c" x="212.039816" y="264.24" style="fill: #8dd3c7; stroke: #8dd3c7"/>
     <use xlink:href="#m0fb35a867c" x="212.474703" y="261.72" style="fill: #8dd3c7; stroke: #8dd3c7"/>
     <use xlink:href="#m0fb35a867c" x="212.960912" y="255.42" style="fill: #8dd3c7; stroke: #8dd3c7"/>
     <use xlink:href="#m0fb35a867c" x="213.43145" y="249.12" style="fill: #8dd3c7; stroke: #8dd3c7"/>
     <use xlink:href="#m0fb35a867c" x="213.706662" y="242.82" style="fill: #8dd3c7; stroke: #8dd3c7"/>
     <use xlink:href="#m0fb35a867c" x="213.947015" y="236.52" style="fill: #8dd3c7; stroke: #8dd3c7"/>
     <use xlink:href="#m0fb35a867c" x="214.095251" y="230.22" style="fill: #8dd3c7; stroke: #8dd3c7"/>
     <use xlink:href="#m0fb35a867c" x="214.329342" y="223.92" style="fill: #8dd3c7; stroke: #8dd3c7"/>
     <use xlink:href="#m0fb35a867c" x="214.673588" y="217.62" style="fill: #8dd3c7; stroke: #8dd3c7"/>
     <use xlink:href="#m0fb35a867c" x="214.898658" y="211.32" style="fill: #8dd3c7; stroke: #8dd3c7"/>
     <use xlink:href="#m0fb35a867c" x="214.954387" y="205.02" style="fill: #8dd3c7; stroke: #8dd3c7"/>
     <use xlink:href="#m0fb35a867c" x="214.898658" y="198.72" style="fill: #8dd3c7; stroke: #8dd3c7"/>
     <use xlink:href="#m0fb35a867c" x="214.531137" y="186.12" style="fill: #8dd3c7; stroke: #8dd3c7"/>
     <use xlink:href="#m0fb35a867c" x="213.493058" y="173.52" style="fill: #8dd3c7; stroke: #8dd3c7"/>
     <use xlink:href="#m0fb35a867c" x="211.696245" y="160.92" style="fill: #8dd3c7; stroke: #8dd3c7"/>
     <use xlink:href="#m0fb35a867c" x="209.034148" y="148.32" style="fill: #8dd3c7; stroke: #8dd3c7"/>
     <use xlink:href="#m0fb35a867c" x="205.931614" y="135.72" style="fill: #8dd3c7; stroke: #8dd3c7"/>
     <use xlink:href="#m0fb35a867c" x="201.223678" y="123.12" style="fill: #8dd3c7; stroke: #8dd3c7"/>
     <use xlink:href="#m0fb35a867c" x="194.90635" y="110.52" style="fill: #8dd3c7; stroke: #8dd3c7"/>
     <use xlink:href="#m0fb35a867c" x="188.369466" y="97.92" style="fill: #8dd3c7; stroke: #8dd3c7"/>
     <use xlink:href="#m0fb35a867c" x="181.745423" y="85.32" style="fill: #8dd3c7; stroke: #8dd3c7"/>
     <use xlink:href="#m0fb35a867c" x="177.363563" y="72.72" style="fill: #8dd3c7; stroke: #8dd3c7"/>
     <use xlink:href="#m0fb35a867c" x="174.990607" y="60.12" style="fill: #8dd3c7; stroke: #8dd3c7"/>
     <use xlink:href="#m0fb35a867c" x="172.155715" y="47.52" style="fill: #8dd3c7; stroke: #8dd3c7"/>
     <use xlink:href="#m0fb35a867c" x="169.904944" y="34.92" style="fill: #8dd3c7; stroke: #8dd3c7"/>
     <use xlink:href="#m0fb35a867c" x="167.242847" y="22.32" style="fill: #8dd3c7; stroke: #8dd3c7"/>
    </g>
   </g>
   <g id="line2d_14">
    <path d="M 137.786485 324.72
L 139.198066 322.2
L 140.666512 319.68
L 141.022655 317.16
L 141.327309 314.64
L 142.878605 312.12
L 144.139381 309.6
L 147.030589 307.08
L 149.590323 304.56
L 155.856978 302.04
L 161.064827 299.52
L 168.298809 297
L 173.641854 294.48
L 176.805491 291.96
L 180.709051 289.44
L 184.474961 286.92
L 188.709042 284.4
L 193.282333 281.88
L 197.513452 279.36
L 201.080528 276.84
L 204.581196 274.32
L 206.928663 271.8
L 209.646872 269.28
L 211.591577 266.76
L 213.119449 264.24
L 214.588284 261.72
L 216.409093 255.42
L 218.184692 249.12
L 219.906931 242.82
L 220.809588 236.52
L 220.734902 230.22
L 219.767588 223.92
L 217.382861 217.62
L 214.954387 211.32
L 211.344394 205.02
L 207.262145 198.72
L 199.324758 186.12
L 192.134056 173.52
L 185.534573 160.92
L 173.163087 148.32
L 170.50099 135.72
L 173.163087 123.12
L 180.621706 110.52
L 185.534573 97.92
L 185.534573 85.32
L 177.363563 72.72
L 167.242847 60.12
L 147.001416 47.52
L 113.381125 34.92
L 79.760834 22.32
" clip-path="url(#p49b9d4b00e)" style="fill: none; stroke-dasharray: 1.5,2.475; stroke-dashoffset: 0; stroke: #feffb3; stroke-width: 1.5"/>
    <defs>
     <path id="m5d6b822569" d="M 0 1.5
C 0.397805 1.5 0.77937 1.341951 1.06066 1.06066
C 1.341951 0.77937 1.5 0.397805 1.5 0
C 1.5 -0.397805 1.341951 -0.77937 1.06066 -1.06066
C 0.77937 -1.341951 0.397805 -1.5 0 -1.5
C -0.397805 -1.5 -0.77937 -1.341951 -1.06066 -1.06066
C -1.341951 -0.77937 -1.5 -0.397805 -1.5 0
C -1.5 0.397805 -1.341951 0.77937 -1.06066 1.06066
C -0.77937 1.341951 -0.397805 1.5 0 1.5
z
" style="stroke: #feffb3"/>
    </defs>
    <g clip-path="url(#p49b9d4b00e)">
     <use xlink:href="#m5d6b822569" x="137.786485" y="324.72" style="fill: #feffb3; stroke: #feffb3"/>
     <use xlink:href="#m5d6b822569" x="139.198066" y="322.2" style="fill: #feffb3; stroke: #feffb3"/>
     <use xlink:href="#m5d6b822569" x="140.666512" y="319.68" style="fill: #feffb3; stroke: #feffb3"/>
     <use xlink:href="#m5d6b822569" x="141.022655" y="317.16" style="fill: #feffb3; stroke: #feffb3"/>
     <use xlink:href="#m5d6b822569" x="141.327309" y="314.64" style="fill: #feffb3; stroke: #feffb3"/>
     <use xlink:href="#m5d6b822569" x="142.878605" y="312.12" style="fill: #feffb3; stroke: #feffb3"/>
     <use xlink:href="#m5d6b822569" x="144.139381" y="309.6" style="fill: #feffb3; stroke: #feffb3"/>
     <use xlink:href="#m5d6b822569" x="147.030589" y="307.08" style="fill: #feffb3; stroke: #feffb3"/>
     <use xlink:href="#m5d6b822569" x="149.590323" y="304.56" style="fill: #feffb3; stroke: #feffb3"/>
     <use xlink:href="#m5d6b822569" x="155.856978" y="302.04" style="fill: #feffb3; stroke: #feffb3"/>
     <use xlink:href="#m5d6b822569" x="161.064827" y="299.52" style="fill: #feffb3; stroke: #feffb3"/>
     <use xlink:href="#m5d6b822569" x="168.298809" y="297" style="fill: #feffb3; stroke: #feffb3"/>
     <use xlink:href="#m5d6b822569" x="173.641854" y="294.48" style="fill: #feffb3; stroke: #feffb3"/>
     <use xlink:href="#m5d6b822569" x="176.805491" y="291.96" style="fill: #feffb3; stroke: #feffb3"/>
     <use xlink:href="#m5d6b822569" x="180.709051" y="289.44" style="fill: #feffb3; stroke: #feffb3"/>
     <use xlink:href="#m5d6b822569" x="184.474961" y="286.92" style="fill: #feffb3; stroke: #feffb3"/>
     <use xlink:href="#m5d6b822569" x="188.709042" y="284.4" style="fill: #feffb3; stroke: #feffb3"/>
     <use xlink:href="#m5d6b822569" x="193.282333" y="281.88" style="fill: #feffb3; stroke: #feffb3"/>
     <use xlink:href="#m5d6b822569" x="197.513452" y="279.36" style="fill: #feffb3; stroke: #feffb3"/>
     <use xlink:href="#m5d6b822569" x="201.080528" y="276.84" style="fill: #feffb3; stroke: #feffb3"/>
     <use xlink:href="#m5d6b822569" x="204.581196" y="274.32" style="fill: #feffb3; stroke: #feffb3"/>
     <use xlink:href="#m5d6b822569" x="206.928663" y="271.8" style="fill: #feffb3; stroke: #feffb3"/>
     <use xlink:href="#m5d6b822569" x="209.646872" y="269.28" style="fill: #feffb3; stroke: #feffb3"/>
     <use xlink:href="#m5d6b822569" x="211.591577" y="266.76" style="fill: #feffb3; stroke: #feffb3"/>
     <use xlink:href="#m5d6b822569" x="213.119449" y="264.24" style="fill: #feffb3; stroke: #feffb3"/>
     <use xlink:href="#m5d6b822569" x="214.588284" y="261.72" style="fill: #feffb3; stroke: #feffb3"/>
     <use xlink:href="#m5d6b822569" x="216.409093" y="255.42" style="fill: #feffb3; stroke: #feffb3"/>
     <use xlink:href="#m5d6b822569" x="218.184692" y="249.12" style="fill: #feffb3; stroke: #feffb3"/>
     <use xlink:href="#m5d6b822569" x="219.906931" y="242.82" style="fill: #feffb3; stroke: #feffb3"/>
     <use xlink:href="#m5d6b822569" x="220.809588" y="236.52" style="fill: #feffb3; stroke: #feffb3"/>
     <use xlink:href="#m5d6b822569" x="220.734902" y="230.22" style="fill: #feffb3; stroke: #feffb3"/>
     <use xlink:href="#m5d6b822569" x="219.767588" y="223.92" style="fill: #feffb3; stroke: #feffb3"/>
     <use xlink:href="#m5d6b822569" x="217.382861" y="217.62" style="fill: #feffb3; stroke: #feffb3"/>
     <use xlink:href="#m5d6b822569" x="214.954387" y="211.32" style="fill: #feffb3; stroke: #feffb3"/>
     <use xlink:href="#m5d6b822569" x="211.344394" y="205.02" style="fill: #feffb3; stroke: #feffb3"/>
     <use xlink:href="#m5d6b822569" x="207.262145" y="198.72" style="fill: #feffb3; stroke: #feffb3"/>
     <use xlink:href="#m5d6b822569" x="199.324758" y="186.12" style="fill: #feffb3; stroke: #feffb3"/>
     <use xlink:href="#m5d6b822569" x="192.134056" y="173.52" style="fill: #feffb3; stroke: #feffb3"/>
     <use xlink:href="#m5d6b822569" x="185.534573" y="160.92" style="fill: #feffb3; stroke: #feffb3"/>
     <use xlink:href="#m5d6b822569" x="173.163087" y="148.32" style="fill: #feffb3; stroke: #feffb3"/>
     <use xlink:href="#m5d6b822569" x="170.50099" y="135.72" style="fill: #feffb3; stroke: #feffb3"/>
     <use xlink:href="#m5d6b822569" x="173.163087" y="123.12" style="fill: #feffb3; stroke: #feffb3"/>
     <use xlink:href="#m5d6b822569" x="180.621706" y="110.52" style="fill: #feffb3; stroke: #feffb3"/>
     <use xlink:href="#m5d6b822569" x="185.534573" y="97.92" style="fill: #feffb3; stroke: #feffb3"/>
     <use xlink:href="#m5d6b822569" x="185.534573" y="85.32" style="fill: #feffb3; stroke: #feffb3"/>
     <use xlink:href="#m5d6b822569" x="177.363563" y="72.72" style="fill: #feffb3; stroke: #feffb3"/>
     <use xlink:href="#m5d6b822569" x="167.242847" y="60.12" style="fill: #feffb3; stroke: #feffb3"/>
     <use xlink:href="#m5d6b822569" x="147.001416" y="47.52" style="fill: #feffb3; stroke: #feffb3"/>
     <use xlink:href="#m5d6b822569" x="113.381125" y="34.92" style="fill: #feffb3; stroke: #feffb3"/>
     <use xlink:href="#m5d6b822569" x="79.760834" y="22.32" style="fill: #feffb3; stroke: #feffb3"/>
    </g>
   </g>
   <g id="line2d_15">
    <path d="M 174.105421 324.72
L 174.105421 322.2
L 174.105421 319.68
L 174.105421 317.16
L 174.105421 314.64
L 174.105421 312.12
L 174.105421 309.6
L 174.105421 307.08
L 174.105421 304.56
L 174.105421 302.04
L 174.013877 299.52
L 173.829051 297
L 173.641854 294.48
L 173.404433 291.96
L 173.163087 289.44
L 172.868105 286.92
L 172.56704 284.4
L 172.051047 281.88
L 171.461564 279.36
L 170.675161 276.84
L 169.72128 274.32
L 168.567962 271.8
L 167.603387 269.28
L 167.022172 266.76
L 166.339398 264.24
L 165.376339 261.72
L 163.893161 255.42
L 162.24211 249.12
L 159.41456 242.82
L 156.031085 236.52
L 151.252907 230.22
L 145.495446 223.92
L 138.272334 217.62
L 130.272871 211.32
L 122.567292 205.02
L 112.632186 198.72
L 105.922505 186.12
L 100.504565 173.52
L 95.898807 160.92
L 91.922229 148.32
L 88.163612 135.72
L 84.79832 123.12
L 81.725134 110.52
L 78.888418 97.92
L 76.24491 85.32
L 73.782073 72.72
L 71.501954 60.12
L 69.285418 47.52
L 67.232766 34.92
L 65.243651 22.32
" clip-path="url(#p49b9d4b00e)" style="fill: none; stroke-dasharray: 1.5,2.475; stroke-dashoffset: 0; stroke: #bfbbd9; stroke-width: 1.5"/>
    <defs>
     <path id="m22b4e8233c" d="M 0 1.5
C 0.397805 1.5 0.77937 1.341951 1.06066 1.06066
C 1.341951 0.77937 1.5 0.397805 1.5 0
C 1.5 -0.397805 1.341951 -0.77937 1.06066 -1.06066
C 0.77937 -1.341951 0.397805 -1.5 0 -1.5
C -0.397805 -1.5 -0.77937 -1.341951 -1.06066 -1.06066
C -1.341951 -0.77937 -1.5 -0.397805 -1.5 0
C -1.5 0.397805 -1.341951 0.77937 -1.06066 1.06066
C -0.77937 1.341951 -0.397805 1.5 0 1.5
z
" style="stroke: #bfbbd9"/>
    </defs>
    <g clip-path="url(#p49b9d4b00e)">
     <use xlink:href="#m22b4e8233c" x="174.105421" y="324.72" style="fill: #bfbbd9; stroke: #bfbbd9"/>
     <use xlink:href="#m22b4e8233c" x="174.105421" y="322.2" style="fill: #bfbbd9; stroke: #bfbbd9"/>
     <use xlink:href="#m22b4e8233c" x="174.105421" y="319.68" style="fill: #bfbbd9; stroke: #bfbbd9"/>
     <use xlink:href="#m22b4e8233c" x="174.105421" y="317.16" style="fill: #bfbbd9; stroke: #bfbbd9"/>
     <use xlink:href="#m22b4e8233c" x="174.105421" y="314.64" style="fill: #bfbbd9; stroke: #bfbbd9"/>
     <use xlink:href="#m22b4e8233c" x="174.105421" y="312.12" style="fill: #bfbbd9; stroke: #bfbbd9"/>
     <use xlink:href="#m22b4e8233c" x="174.105421" y="309.6" style="fill: #bfbbd9; stroke: #bfbbd9"/>
     <use xlink:href="#m22b4e8233c" x="174.105421" y="307.08" style="fill: #bfbbd9; stroke: #bfbbd9"/>
     <use xlink:href="#m22b4e8233c" x="174.105421" y="304.56" style="fill: #bfbbd9; stroke: #bfbbd9"/>
     <use xlink:href="#m22b4e8233c" x="174.105421" y="302.04" style="fill: #bfbbd9; stroke: #bfbbd9"/>
     <use xlink:href="#m22b4e8233c" x="174.013877" y="299.52" style="fill: #bfbbd9; stroke: #bfbbd9"/>
     <use xlink:href="#m22b4e8233c" x="173.829051" y="297" style="fill: #bfbbd9; stroke: #bfbbd9"/>
     <use xlink:href="#m22b4e8233c" x="173.641854" y="294.48" style="fill: #bfbbd9; stroke: #bfbbd9"/>
     <use xlink:href="#m22b4e8233c" x="173.404433" y="291.96" style="fill: #bfbbd9; stroke: #bfbbd9"/>
     <use xlink:href="#m22b4e8233c" x="173.163087" y="289.44" style="fill: #bfbbd9; stroke: #bfbbd9"/>
     <use xlink:href="#m22b4e8233c" x="172.868105" y="286.92" style="fill: #bfbbd9; stroke: #bfbbd9"/>
     <use xlink:href="#m22b4e8233c" x="172.56704" y="284.4" style="fill: #bfbbd9; stroke: #bfbbd9"/>
     <use xlink:href="#m22b4e8233c" x="172.051047" y="281.88" style="fill: #bfbbd9; stroke: #bfbbd9"/>
     <use xlink:href="#m22b4e8233c" x="171.461564" y="279.36" style="fill: #bfbbd9; stroke: #bfbbd9"/>
     <use xlink:href="#m22b4e8233c" x="170.675161" y="276.84" style="fill: #bfbbd9; stroke: #bfbbd9"/>
     <use xlink:href="#m22b4e8233c" x="169.72128" y="274.32" style="fill: #bfbbd9; stroke: #bfbbd9"/>
     <use xlink:href="#m22b4e8233c" x="168.567962" y="271.8" style="fill: #bfbbd9; stroke: #bfbbd9"/>
     <use xlink:href="#m22b4e8233c" x="167.603387" y="269.28" style="fill: #bfbbd9; stroke: #bfbbd9"/>
     <use xlink:href="#m22b4e8233c" x="167.022172" y="266.76" style="fill: #bfbbd9; stroke: #bfbbd9"/>
     <use xlink:href="#m22b4e8233c" x="166.339398" y="264.24" style="fill: #bfbbd9; stroke: #bfbbd9"/>
     <use xlink:href="#m22b4e8233c" x="165.376339" y="261.72" style="fill: #bfbbd9; stroke: #bfbbd9"/>
     <use xlink:href="#m22b4e8233c" x="163.893161" y="255.42" style="fill: #bfbbd9; stroke: #bfbbd9"/>
     <use xlink:href="#m22b4e8233c" x="162.24211" y="249.12" style="fill: #bfbbd9; stroke: #bfbbd9"/>
     <use xlink:href="#m22b4e8233c" x="159.41456" y="242.82" style="fill: #bfbbd9; stroke: #bfbbd9"/>
     <use xlink:href="#m22b4e8233c" x="156.031085" y="236.52" style="fill: #bfbbd9; stroke: #bfbbd9"/>
     <use xlink:href="#m22b4e8233c" x="151.252907" y="230.22" style="fill: #bfbbd9; stroke: #bfbbd9"/>
     <use xlink:href="#m22b4e8233c" x="145.495446" y="223.92" style="fill: #bfbbd9; stroke: #bfbbd9"/>
     <use xlink:href="#m22b4e8233c" x="138.272334" y="217.62" style="fill: #bfbbd9; stroke: #bfbbd9"/>
     <use xlink:href="#m22b4e8233c" x="130.272871" y="211.32" style="fill: #bfbbd9; stroke: #bfbbd9"/>
     <use xlink:href="#m22b4e8233c" x="122.567292" y="205.02" style="fill: #bfbbd9; stroke: #bfbbd9"/>
     <use xlink:href="#m22b4e8233c" x="112.632186" y="198.72" style="fill: #bfbbd9; stroke: #bfbbd9"/>
     <use xlink:href="#m22b4e8233c" x="105.922505" y="186.12" style="fill: #bfbbd9; stroke: #bfbbd9"/>
     <use xlink:href="#m22b4e8233c" x="100.504565" y="173.52" style="fill: #bfbbd9; stroke: #bfbbd9"/>
     <use xlink:href="#m22b4e8233c" x="95.898807" y="160.92" style="fill: #bfbbd9; stroke: #bfbbd9"/>
     <use xlink:href="#m22b4e8233c" x="91.922229" y="148.32" style="fill: #bfbbd9; stroke: #bfbbd9"/>
     <use xlink:href="#m22b4e8233c" x="88.163612" y="135.72" style="fill: #bfbbd9; stroke: #bfbbd9"/>
     <use xlink:href="#m22b4e8233c" x="84.79832" y="123.12" style="fill: #bfbbd9; stroke: #bfbbd9"/>
     <use xlink:href="#m22b4e8233c" x="81.725134" y="110.52" style="fill: #bfbbd9; stroke: #bfbbd9"/>
     <use xlink:href="#m22b4e8233c" x="78.888418" y="97.92" style="fill: #bfbbd9; stroke: #bfbbd9"/>
     <use xlink:href="#m22b4e8233c" x="76.24491" y="85.32" style="fill: #bfbbd9; stroke: #bfbbd9"/>
     <use xlink:href="#m22b4e8233c" x="73.782073" y="72.72" style="fill: #bfbbd9; stroke: #bfbbd9"/>
     <use xlink:href="#m22b4e8233c" x="71.501954" y="60.12" style="fill: #bfbbd9; stroke: #bfbbd9"/>
     <use xlink:href="#m22b4e8233c" x="69.285418" y="47.52" style="fill: #bfbbd9; stroke: #bfbbd9"/>
     <use xlink:href="#m22b4e8233c" x="67.232766" y="34.92" style="fill: #bfbbd9; stroke: #bfbbd9"/>
     <use xlink:href="#m22b4e8233c" x="65.243651" y="22.32" style="fill: #bfbbd9; stroke: #bfbbd9"/>
    </g>
   </g>
   <g id="line2d_16">
    <path d="M 163.042371 324.72
L 162.547371 322.2
L 162.034999 319.68
L 161.503991 317.16
L 161.064827 314.64
L 160.95294 312.12
L 160.84019 309.6
L 160.380274 307.08
L 159.662042 304.56
L 158.380421 302.04
L 157.06361 299.52
L 155.518713 297
L 153.513028 294.48
L 150.537242 291.96
L 147.08876 289.44
L 143.522597 286.92
L 139.879575 284.4
L 136.822178 281.88
L 133.401881 279.36
L 129.900848 276.84
L 127.665769 274.32
L 126.524477 271.8
L 126.524477 269.28
L 127.332649 266.76
L 128.414708 264.24
L 129.42208 261.72
L 130.364414 255.42
L 131.335238 249.12
L 132.484232 242.82
L 133.69538 236.52
L 135.146328 230.22
L 136.8807 223.92
L 138.639347 217.62
L 140.666512 211.32
L 142.68366 205.02
L 145.783952 198.72
L 151.143371 186.12
L 158.110023 173.52
L 166.183235 160.92
L 173.452227 148.32
L 184.180437 135.72
L 196.662662 123.12
L 207.907094 110.52
L 216.509445 97.92
L 224.507999 85.32
L 232.02433 72.72
L 237.565299 60.12
L 242.058392 47.52
L 245.14167 34.92
L 247.862288 22.32
" clip-path="url(#p49b9d4b00e)" style="fill: none; stroke-dasharray: 1.5,2.475; stroke-dashoffset: 0; stroke: #fa8174; stroke-width: 1.5"/>
    <defs>
     <path id="me88c22be2b" d="M 0 1.5
C 0.397805 1.5 0.77937 1.341951 1.06066 1.06066
C 1.341951 0.77937 1.5 0.397805 1.5 0
C 1.5 -0.397805 1.341951 -0.77937 1.06066 -1.06066
C 0.77937 -1.341951 0.397805 -1.5 0 -1.5
C -0.397805 -1.5 -0.77937 -1.341951 -1.06066 -1.06066
C -1.341951 -0.77937 -1.5 -0.397805 -1.5 0
C -1.5 0.397805 -1.341951 0.77937 -1.06066 1.06066
C -0.77937 1.341951 -0.397805 1.5 0 1.5
z
" style="stroke: #fa8174"/>
    </defs>
    <g clip-path="url(#p49b9d4b00e)">
     <use xlink:href="#me88c22be2b" x="163.042371" y="324.72" style="fill: #fa8174; stroke: #fa8174"/>
     <use xlink:href="#me88c22be2b" x="162.547371" y="322.2" style="fill: #fa8174; stroke: #fa8174"/>
     <use xlink:href="#me88c22be2b" x="162.034999" y="319.68" style="fill: #fa8174; stroke: #fa8174"/>
     <use xlink:href="#me88c22be2b" x="161.503991" y="317.16" style="fill: #fa8174; stroke: #fa8174"/>
     <use xlink:href="#me88c22be2b" x="161.064827" y="314.64" style="fill: #fa8174; stroke: #fa8174"/>
     <use xlink:href="#me88c22be2b" x="160.95294" y="312.12" style="fill: #fa8174; stroke: #fa8174"/>
     <use xlink:href="#me88c22be2b" x="160.84019" y="309.6" style="fill: #fa8174; stroke: #fa8174"/>
     <use xlink:href="#me88c22be2b" x="160.380274" y="307.08" style="fill: #fa8174; stroke: #fa8174"/>
     <use xlink:href="#me88c22be2b" x="159.662042" y="304.56" style="fill: #fa8174; stroke: #fa8174"/>
     <use xlink:href="#me88c22be2b" x="158.380421" y="302.04" style="fill: #fa8174; stroke: #fa8174"/>
     <use xlink:href="#me88c22be2b" x="157.06361" y="299.52" style="fill: #fa8174; stroke: #fa8174"/>
     <use xlink:href="#me88c22be2b" x="155.518713" y="297" style="fill: #fa8174; stroke: #fa8174"/>
     <use xlink:href="#me88c22be2b" x="153.513028" y="294.48" style="fill: #fa8174; stroke: #fa8174"/>
     <use xlink:href="#me88c22be2b" x="150.537242" y="291.96" style="fill: #fa8174; stroke: #fa8174"/>
     <use xlink:href="#me88c22be2b" x="147.08876" y="289.44" style="fill: #fa8174; stroke: #fa8174"/>
     <use xlink:href="#me88c22be2b" x="143.522597" y="286.92" style="fill: #fa8174; stroke: #fa8174"/>
     <use xlink:href="#me88c22be2b" x="139.879575" y="284.4" style="fill: #fa8174; stroke: #fa8174"/>
     <use xlink:href="#me88c22be2b" x="136.822178" y="281.88" style="fill: #fa8174; stroke: #fa8174"/>
     <use xlink:href="#me88c22be2b" x="133.401881" y="279.36" style="fill: #fa8174; stroke: #fa8174"/>
     <use xlink:href="#me88c22be2b" x="129.900848" y="276.84" style="fill: #fa8174; stroke: #fa8174"/>
     <use xlink:href="#me88c22be2b" x="127.665769" y="274.32" style="fill: #fa8174; stroke: #fa8174"/>
     <use xlink:href="#me88c22be2b" x="126.524477" y="271.8" style="fill: #fa8174; stroke: #fa8174"/>
     <use xlink:href="#me88c22be2b" x="126.524477" y="269.28" style="fill: #fa8174; stroke: #fa8174"/>
     <use xlink:href="#me88c22be2b" x="127.332649" y="266.76" style="fill: #fa8174; stroke: #fa8174"/>
     <use xlink:href="#me88c22be2b" x="128.414708" y="264.24" style="fill: #fa8174; stroke: #fa8174"/>
     <use xlink:href="#me88c22be2b" x="129.42208" y="261.72" style="fill: #fa8174; stroke: #fa8174"/>
     <use xlink:href="#me88c22be2b" x="130.364414" y="255.42" style="fill: #fa8174; stroke: #fa8174"/>
     <use xlink:href="#me88c22be2b" x="131.335238" y="249.12" style="fill: #fa8174; stroke: #fa8174"/>
     <use xlink:href="#me88c22be2b" x="132.484232" y="242.82" style="fill: #fa8174; stroke: #fa8174"/>
     <use xlink:href="#me88c22be2b" x="133.69538" y="236.52" style="fill: #fa8174; stroke: #fa8174"/>
     <use xlink:href="#me88c22be2b" x="135.146328" y="230.22" style="fill: #fa8174; stroke: #fa8174"/>
     <use xlink:href="#me88c22be2b" x="136.8807" y="223.92" style="fill: #fa8174; stroke: #fa8174"/>
     <use xlink:href="#me88c22be2b" x="138.639347" y="217.62" style="fill: #fa8174; stroke: #fa8174"/>
     <use xlink:href="#me88c22be2b" x="140.666512" y="211.32" style="fill: #fa8174; stroke: #fa8174"/>
     <use xlink:href="#me88c22be2b" x="142.68366" y="205.02" style="fill: #fa8174; stroke: #fa8174"/>
     <use xlink:href="#me88c22be2b" x="145.783952" y="198.72" style="fill: #fa8174; stroke: #fa8174"/>
     <use xlink:href="#me88c22be2b" x="151.143371" y="186.12" style="fill: #fa8174; stroke: #fa8174"/>
     <use xlink:href="#me88c22be2b" x="158.110023" y="173.52" style="fill: #fa8174; stroke: #fa8174"/>
     <use xlink:href="#me88c22be2b" x="166.183235" y="160.92" style="fill: #fa8174; stroke: #fa8174"/>
     <use xlink:href="#me88c22be2b" x="173.452227" y="148.32" style="fill: #fa8174; stroke: #fa8174"/>
     <use xlink:href="#me88c22be2b" x="184.180437" y="135.72" style="fill: #fa8174; stroke: #fa8174"/>
     <use xlink:href="#me88c22be2b" x="196.662662" y="123.12" style="fill: #fa8174; stroke: #fa8174"/>
     <use xlink:href="#me88c22be2b" x="207.907094" y="110.52" style="fill: #fa8174; stroke: #fa8174"/>
     <use xlink:href="#me88c22be2b" x="216.509445" y="97.92" style="fill: #fa8174; stroke: #fa8174"/>
     <use xlink:href="#me88c22be2b" x="224.507999" y="85.32" style="fill: #fa8174; stroke: #fa8174"/>
     <use xlink:href="#me88c22be2b" x="232.02433" y="72.72" style="fill: #fa8174; stroke: #fa8174"/>
     <use xlink:href="#me88c22be2b" x="237.565299" y="60.12" style="fill: #fa8174; stroke: #fa8174"/>
     <use xlink:href="#me88c22be2b" x="242.058392" y="47.52" style="fill: #fa8174; stroke: #fa8174"/>
     <use xlink:href="#me88c22be2b" x="245.14167" y="34.92" style="fill: #fa8174; stroke: #fa8174"/>
     <use xlink:href="#me88c22be2b" x="247.862288" y="22.32" style="fill: #fa8174; stroke: #fa8174"/>
    </g>
   </g>
   <g id="line2d_17">
    <path d="M 198.490182 324.72
L 198.490182 322.2
L 198.490182 319.68
L 198.490182 317.16
L 198.490182 314.64
L 198.490182 312.12
L 198.490182 309.6
L 198.490182 307.08
L 198.490182 304.56
L 198.404039 302.04
L 198.404039 299.52
L 198.317386 297
L 198.14252 294.48
L 198.054296 291.96
L 197.876231 289.44
L 197.695968 286.92
L 197.421331 284.4
L 197.141429 281.88
L 196.856056 279.36
L 196.268013 276.84
L 195.862401 274.32
L 195.232039 271.8
L 194.232333 269.28
L 193.282333 266.76
L 192.397146 264.24
L 191.593213 261.72
L 190.551363 255.42
L 189.429422 249.12
L 188.021804 242.82
L 186.463865 236.52
L 184.719616 230.22
L 182.380353 223.92
L 179.43595 217.62
L 175.946355 211.32
L 171.99843 205.02
L 167.955238 198.72
L 164.434005 186.12
L 163.042371 173.52
L 163.042371 160.92
L 163.042371 148.32
L 163.042371 135.72
L 163.042371 123.12
L 163.042371 110.52
L 162.034999 97.92
L 160.95294 85.32
L 159.784228 72.72
L 158.513766 60.12
L 156.373193 47.52
L 149.663512 34.92
L 139.542796 22.32
" clip-path="url(#p49b9d4b00e)" style="fill: none; stroke-dasharray: 1.5,2.475; stroke-dashoffset: 0; stroke: #81b1d2; stroke-width: 1.5"/>
    <defs>
     <path id="m14908207d4" d="M 0 1.5
C 0.397805 1.5 0.77937 1.341951 1.06066 1.06066
C 1.341951 0.77937 1.5 0.397805 1.5 0
C 1.5 -0.397805 1.341951 -0.77937 1.06066 -1.06066
C 0.77937 -1.341951 0.397805 -1.5 0 -1.5
C -0.397805 -1.5 -0.77937 -1.341951 -1.06066 -1.06066
C -1.341951 -0.77937 -1.5 -0.397805 -1.5 0
C -1.5 0.397805 -1.341951 0.77937 -1.06066 1.06066
C -0.77937 1.341951 -0.397805 1.5 0 1.5
z
" style="stroke: #81b1d2"/>
    </defs>
    <g clip-path="url(#p49b9d4b00e)">
     <use xlink:href="#m14908207d4" x="198.490182" y="324.72" style="fill: #81b1d2; stroke: #81b1d2"/>
     <use xlink:href="#m14908207d4" x="198.490182" y="322.2" style="fill: #81b1d2; stroke: #81b1d2"/>
     <use xlink:href="#m14908207d4" x="198.490182" y="319.68" style="fill: #81b1d2; stroke: #81b1d2"/>
     <use xlink:href="#m14908207d4" x="198.490182" y="317.16" style="fill: #81b1d2; stroke: #81b1d2"/>
     <use xlink:href="#m14908207d4" x="198.490182" y="314.64" style="fill: #81b1d2; stroke: #81b1d2"/>
     <use xlink:href="#m14908207d4" x="198.490182" y="312.12" style="fill: #81b1d2; stroke: #81b1d2"/>
     <use xlink:href="#m14908207d4" x="198.490182" y="309.6" style="fill: #81b1d2; stroke: #81b1d2"/>
     <use xlink:href="#m14908207d4" x="198.490182" y="307.08" style="fill: #81b1d2; stroke: #81b1d2"/>
     <use xlink:href="#m14908207d4" x="198.490182" y="304.56" style="fill: #81b1d2; stroke: #81b1d2"/>
     <use xlink:href="#m14908207d4" x="198.404039" y="302.04" style="fill: #81b1d2; stroke: #81b1d2"/>
     <use xlink:href="#m14908207d4" x="198.404039" y="299.52" style="fill: #81b1d2; stroke: #81b1d2"/>
     <use xlink:href="#m14908207d4" x="198.317386" y="297" style="fill: #81b1d2; stroke: #81b1d2"/>
     <use xlink:href="#m14908207d4" x="198.14252" y="294.48" style="fill: #81b1d2; stroke: #81b1d2"/>
     <use xlink:href="#m14908207d4" x="198.054296" y="291.96" style="fill: #81b1d2; stroke: #81b1d2"/>
     <use xlink:href="#m14908207d4" x="197.876231" y="289.44" style="fill: #81b1d2; stroke: #81b1d2"/>
     <use xlink:href="#m14908207d4" x="197.695968" y="286.92" style="fill: #81b1d2; stroke: #81b1d2"/>
     <use xlink:href="#m14908207d4" x="197.421331" y="284.4" style="fill: #81b1d2; stroke: #81b1d2"/>
     <use xlink:href="#m14908207d4" x="197.141429" y="281.88" style="fill: #81b1d2; stroke: #81b1d2"/>
     <use xlink:href="#m14908207d4" x="196.856056" y="279.36" style="fill: #81b1d2; stroke: #81b1d2"/>
     <use xlink:href="#m14908207d4" x="196.268013" y="276.84" style="fill: #81b1d2; stroke: #81b1d2"/>
     <use xlink:href="#m14908207d4" x="195.862401" y="274.32" style="fill: #81b1d2; stroke: #81b1d2"/>
     <use xlink:href="#m14908207d4" x="195.232039" y="271.8" style="fill: #81b1d2; stroke: #81b1d2"/>
     <use xlink:href="#m14908207d4" x="194.232333" y="269.28" style="fill: #81b1d2; stroke: #81b1d2"/>
     <use xlink:href="#m14908207d4" x="193.282333" y="266.76" style="fill: #81b1d2; stroke: #81b1d2"/>
     <use xlink:href="#m14908207d4" x="192.397146" y="264.24" style="fill: #81b1d2; stroke: #81b1d2"/>
     <use xlink:href="#m14908207d4" x="191.593213" y="261.72" style="fill: #81b1d2; stroke: #81b1d2"/>
     <use xlink:href="#m14908207d4" x="190.551363" y="255.42" style="fill: #81b1d2; stroke: #81b1d2"/>
     <use xlink:href="#m14908207d4" x="189.429422" y="249.12" style="fill: #81b1d2; stroke: #81b1d2"/>
     <use xlink:href="#m14908207d4" x="188.021804" y="242.82" style="fill: #81b1d2; stroke: #81b1d2"/>
     <use xlink:href="#m14908207d4" x="186.463865" y="236.52" style="fill: #81b1d2; stroke: #81b1d2"/>
     <use xlink:href="#m14908207d4" x="184.719616" y="230.22" style="fill: #81b1d2; stroke: #81b1d2"/>
     <use xlink:href="#m14908207d4" x="182.380353" y="223.92" style="fill: #81b1d2; stroke: #81b1d2"/>
     <use xlink:href="#m14908207d4" x="179.43595" y="217.62" style="fill: #81b1d2; stroke: #81b1d2"/>
     <use xlink:href="#m14908207d4" x="175.946355" y="211.32" style="fill: #81b1d2; stroke: #81b1d2"/>
     <use xlink:href="#m14908207d4" x="171.99843" y="205.02" style="fill: #81b1d2; stroke: #81b1d2"/>
     <use xlink:href="#m14908207d4" x="167.955238" y="198.72" style="fill: #81b1d2; stroke: #81b1d2"/>
     <use xlink:href="#m14908207d4" x="164.434005" y="186.12" style="fill: #81b1d2; stroke: #81b1d2"/>
     <use xlink:href="#m14908207d4" x="163.042371" y="173.52" style="fill: #81b1d2; stroke: #81b1d2"/>
     <use xlink:href="#m14908207d4" x="163.042371" y="160.92" style="fill: #81b1d2; stroke: #81b1d2"/>
     <use xlink:href="#m14908207d4" x="163.042371" y="148.32" style="fill: #81b1d2; stroke: #81b1d2"/>
     <use xlink:href="#m14908207d4" x="163.042371" y="135.72" style="fill: #81b1d2; stroke: #81b1d2"/>
     <use xlink:href="#m14908207d4" x="163.042371" y="123.12" style="fill: #81b1d2; stroke: #81b1d2"/>
     <use xlink:href="#m14908207d4" x="163.042371" y="110.52" style="fill: #81b1d2; stroke: #81b1d2"/>
     <use xlink:href="#m14908207d4" x="162.034999" y="97.92" style="fill: #81b1d2; stroke: #81b1d2"/>
     <use xlink:href="#m14908207d4" x="160.95294" y="85.32" style="fill: #81b1d2; stroke: #81b1d2"/>
     <use xlink:href="#m14908207d4" x="159.784228" y="72.72" style="fill: #81b1d2; stroke: #81b1d2"/>
     <use xlink:href="#m14908207d4" x="158.513766" y="60.12" style="fill: #81b1d2; stroke: #81b1d2"/>
     <use xlink:href="#m14908207d4" x="156.373193" y="47.52" style="fill: #81b1d2; stroke: #81b1d2"/>
     <use xlink:href="#m14908207d4" x="149.663512" y="34.92" style="fill: #81b1d2; stroke: #81b1d2"/>
     <use xlink:href="#m14908207d4" x="139.542796" y="22.32" style="fill: #81b1d2; stroke: #81b1d2"/>
    </g>
   </g>
   <g id="line2d_18">
    <path d="M 275.415593 324.72
L 275.415593 322.2
L 275.415593 319.68
L 275.415593 317.16
L 275.415593 314.64
L 275.415593 312.12
L 275.415593 309.6
L 275.415593 307.08
L 275.415593 304.56
L 275.415593 302.04
L 275.415593 299.52
L 275.415593 297
L 275.415593 294.48
L 275.415593 291.96
L 275.415593 289.44
L 275.415593 286.92
L 275.415593 284.4
L 275.415593 281.88
L 275.415593 279.36
L 275.415593 276.84
L 275.415593 274.32
L 275.415593 271.8
L 275.415593 269.28
L 275.415593 266.76
L 275.415593 264.24
L 275.415593 261.72
L 275.415593 255.42
L 275.415593 249.12
L 275.415593 242.82
L 275.415593 236.52
L 275.415593 230.22
L 275.415593 223.92
L 275.415593 217.62
L 275.415593 211.32
L 275.415593 205.02
L 275.415593 198.72
L 275.415593 186.12
L 275.415593 173.52
L 275.415593 160.92
L 275.415593 148.32
L 275.415593 135.72
L 275.326832 123.12
L 274.966293 110.52
L 274.502727 97.92
L 272.485579 85.32
L 267.734052 72.72
L 259.374638 60.12
L 250.524384 47.52
L 244.604145 34.92
L 242.654439 22.32
" clip-path="url(#p49b9d4b00e)" style="fill: none; stroke-dasharray: 1.5,2.475; stroke-dashoffset: 0; stroke: #fdb462; stroke-width: 1.5"/>
    <defs>
     <path id="me1b8f12737" d="M 0 1.5
C 0.397805 1.5 0.77937 1.341951 1.06066 1.06066
C 1.341951 0.77937 1.5 0.397805 1.5 0
C 1.5 -0.397805 1.341951 -0.77937 1.06066 -1.06066
C 0.77937 -1.341951 0.397805 -1.5 0 -1.5
C -0.397805 -1.5 -0.77937 -1.341951 -1.06066 -1.06066
C -1.341951 -0.77937 -1.5 -0.397805 -1.5 0
C -1.5 0.397805 -1.341951 0.77937 -1.06066 1.06066
C -0.77937 1.341951 -0.397805 1.5 0 1.5
z
" style="stroke: #fdb462"/>
    </defs>
    <g clip-path="url(#p49b9d4b00e)">
     <use xlink:href="#me1b8f12737" x="275.415593" y="324.72" style="fill: #fdb462; stroke: #fdb462"/>
     <use xlink:href="#me1b8f12737" x="275.415593" y="322.2" style="fill: #fdb462; stroke: #fdb462"/>
     <use xlink:href="#me1b8f12737" x="275.415593" y="319.68" style="fill: #fdb462; stroke: #fdb462"/>
     <use xlink:href="#me1b8f12737" x="275.415593" y="317.16" style="fill: #fdb462; stroke: #fdb462"/>
     <use xlink:href="#me1b8f12737" x="275.415593" y="314.64" style="fill: #fdb462; stroke: #fdb462"/>
     <use xlink:href="#me1b8f12737" x="275.415593" y="312.12" style="fill: #fdb462; stroke: #fdb462"/>
     <use xlink:href="#me1b8f12737" x="275.415593" y="309.6" style="fill: #fdb462; stroke: #fdb462"/>
     <use xlink:href="#me1b8f12737" x="275.415593" y="307.08" style="fill: #fdb462; stroke: #fdb462"/>
     <use xlink:href="#me1b8f12737" x="275.415593" y="304.56" style="fill: #fdb462; stroke: #fdb462"/>
     <use xlink:href="#me1b8f12737" x="275.415593" y="302.04" style="fill: #fdb462; stroke: #fdb462"/>
     <use xlink:href="#me1b8f12737" x="275.415593" y="299.52" style="fill: #fdb462; stroke: #fdb462"/>
     <use xlink:href="#me1b8f12737" x="275.415593" y="297" style="fill: #fdb462; stroke: #fdb462"/>
     <use xlink:href="#me1b8f12737" x="275.415593" y="294.48" style="fill: #fdb462; stroke: #fdb462"/>
     <use xlink:href="#me1b8f12737" x="275.415593" y="291.96" style="fill: #fdb462; stroke: #fdb462"/>
     <use xlink:href="#me1b8f12737" x="275.415593" y="289.44" style="fill: #fdb462; stroke: #fdb462"/>
     <use xlink:href="#me1b8f12737" x="275.415593" y="286.92" style="fill: #fdb462; stroke: #fdb462"/>
     <use xlink:href="#me1b8f12737" x="275.415593" y="284.4" style="fill: #fdb462; stroke: #fdb462"/>
     <use xlink:href="#me1b8f12737" x="275.415593" y="281.88" style="fill: #fdb462; stroke: #fdb462"/>
     <use xlink:href="#me1b8f12737" x="275.415593" y="279.36" style="fill: #fdb462; stroke: #fdb462"/>
     <use xlink:href="#me1b8f12737" x="275.415593" y="276.84" style="fill: #fdb462; stroke: #fdb462"/>
     <use xlink:href="#me1b8f12737" x="275.415593" y="274.32" style="fill: #fdb462; stroke: #fdb462"/>
     <use xlink:href="#me1b8f12737" x="275.415593" y="271.8" style="fill: #fdb462; stroke: #fdb462"/>
     <use xlink:href="#me1b8f12737" x="275.415593" y="269.28" style="fill: #fdb462; stroke: #fdb462"/>
     <use xlink:href="#me1b8f12737" x="275.415593" y="266.76" style="fill: #fdb462; stroke: #fdb462"/>
     <use xlink:href="#me1b8f12737" x="275.415593" y="264.24" style="fill: #fdb462; stroke: #fdb462"/>
     <use xlink:href="#me1b8f12737" x="275.415593" y="261.72" style="fill: #fdb462; stroke: #fdb462"/>
     <use xlink:href="#me1b8f12737" x="275.415593" y="255.42" style="fill: #fdb462; stroke: #fdb462"/>
     <use xlink:href="#me1b8f12737" x="275.415593" y="249.12" style="fill: #fdb462; stroke: #fdb462"/>
     <use xlink:href="#me1b8f12737" x="275.415593" y="242.82" style="fill: #fdb462; stroke: #fdb462"/>
     <use xlink:href="#me1b8f12737" x="275.415593" y="236.52" style="fill: #fdb462; stroke: #fdb462"/>
     <use xlink:href="#me1b8f12737" x="275.415593" y="230.22" style="fill: #fdb462; stroke: #fdb462"/>
     <use xlink:href="#me1b8f12737" x="275.415593" y="223.92" style="fill: #fdb462; stroke: #fdb462"/>
     <use xlink:href="#me1b8f12737" x="275.415593" y="217.62" style="fill: #fdb462; stroke: #fdb462"/>
     <use xlink:href="#me1b8f12737" x="275.415593" y="211.32" style="fill: #fdb462; stroke: #fdb462"/>
     <use xlink:href="#me1b8f12737" x="275.415593" y="205.02" style="fill: #fdb462; stroke: #fdb462"/>
     <use xlink:href="#me1b8f12737" x="275.415593" y="198.72" style="fill: #fdb462; stroke: #fdb462"/>
     <use xlink:href="#me1b8f12737" x="275.415593" y="186.12" style="fill: #fdb462; stroke: #fdb462"/>
     <use xlink:href="#me1b8f12737" x="275.415593" y="173.52" style="fill: #fdb462; stroke: #fdb462"/>
     <use xlink:href="#me1b8f12737" x="275.415593" y="160.92" style="fill: #fdb462; stroke: #fdb462"/>
     <use xlink:href="#me1b8f12737" x="275.415593" y="148.32" style="fill: #fdb462; stroke: #fdb462"/>
     <use xlink:href="#me1b8f12737" x="275.415593" y="135.72" style="fill: #fdb462; stroke: #fdb462"/>
     <use xlink:href="#me1b8f12737" x="275.326832" y="123.12" style="fill: #fdb462; stroke: #fdb462"/>
     <use xlink:href="#me1b8f12737" x="274.966293" y="110.52" style="fill: #fdb462; stroke: #fdb462"/>
     <use xlink:href="#me1b8f12737" x="274.502727" y="97.92" style="fill: #fdb462; stroke: #fdb462"/>
     <use xlink:href="#me1b8f12737" x="272.485579" y="85.32" style="fill: #fdb462; stroke: #fdb462"/>
     <use xlink:href="#me1b8f12737" x="267.734052" y="72.72" style="fill: #fdb462; stroke: #fdb462"/>
     <use xlink:href="#me1b8f12737" x="259.374638" y="60.12" style="fill: #fdb462; stroke: #fdb462"/>
     <use xlink:href="#me1b8f12737" x="250.524384" y="47.52" style="fill: #fdb462; stroke: #fdb462"/>
     <use xlink:href="#me1b8f12737" x="244.604145" y="34.92" style="fill: #fdb462; stroke: #fdb462"/>
     <use xlink:href="#me1b8f12737" x="242.654439" y="22.32" style="fill: #fdb462; stroke: #fdb462"/>
    </g>
   </g>
   <g id="line2d_19">
    <path d="M 369.607287 324.72
L 369.607287 322.2
L 369.607287 319.68
L 369.607287 317.16
L 369.607287 314.64
L 369.607287 312.12
L 369.607287 309.6
L 369.607287 307.08
L 369.607287 304.56
L 369.607287 302.04
L 369.607287 299.52
L 369.607287 297
L 369.607287 294.48
L 369.607287 291.96
L 369.607287 289.44
L 369.607287 286.92
L 369.607287 284.4
L 369.607287 281.88
L 369.607287 279.36
L 369.607287 276.84
L 369.607287 274.32
L 369.607287 271.8
L 369.607287 269.28
L 369.607287 266.76
L 369.607287 264.24
L 369.607287 261.72
L 369.607287 255.42
L 369.607287 249.12
L 369.607287 242.82
L 369.607287 236.52
L 369.607287 230.22
L 369.607287 223.92
L 369.607287 217.62
L 369.607287 211.32
L 369.607287 205.02
L 369.607287 198.72
L 369.607287 186.12
L 369.607287 173.52
L 369.607287 160.92
L 369.607287 148.32
L 369.607287 135.72
L 369.607287 123.12
L 368.964592 110.52
L 368.215653 97.92
L 367.426212 85.32
L 365.706449 72.72
L 363.756743 60.12
L 361.505972 47.52
L 357.940426 34.92
L 354.148399 22.32
" clip-path="url(#p49b9d4b00e)" style="fill: none; stroke-dasharray: 1.5,2.475; stroke-dashoffset: 0; stroke: #b3de69; stroke-width: 1.5"/>
    <defs>
     <path id="me4fcb877a7" d="M 0 1.5
C 0.397805 1.5 0.77937 1.341951 1.06066 1.06066
C 1.341951 0.77937 1.5 0.397805 1.5 0
C 1.5 -0.397805 1.341951 -0.77937 1.06066 -1.06066
C 0.77937 -1.341951 0.397805 -1.5 0 -1.5
C -0.397805 -1.5 -0.77937 -1.341951 -1.06066 -1.06066
C -1.341951 -0.77937 -1.5 -0.397805 -1.5 0
C -1.5 0.397805 -1.341951 0.77937 -1.06066 1.06066
C -0.77937 1.341951 -0.397805 1.5 0 1.5
z
" style="stroke: #b3de69"/>
    </defs>
    <g clip-path="url(#p49b9d4b00e)">
     <use xlink:href="#me4fcb877a7" x="369.607287" y="324.72" style="fill: #b3de69; stroke: #b3de69"/>
     <use xlink:href="#me4fcb877a7" x="369.607287" y="322.2" style="fill: #b3de69; stroke: #b3de69"/>
     <use xlink:href="#me4fcb877a7" x="369.607287" y="319.68" style="fill: #b3de69; stroke: #b3de69"/>
     <use xlink:href="#me4fcb877a7" x="369.607287" y="317.16" style="fill: #b3de69; stroke: #b3de69"/>
     <use xlink:href="#me4fcb877a7" x="369.607287" y="314.64" style="fill: #b3de69; stroke: #b3de69"/>
     <use xlink:href="#me4fcb877a7" x="369.607287" y="312.12" style="fill: #b3de69; stroke: #b3de69"/>
     <use xlink:href="#me4fcb877a7" x="369.607287" y="309.6" style="fill: #b3de69; stroke: #b3de69"/>
     <use xlink:href="#me4fcb877a7" x="369.607287" y="307.08" style="fill: #b3de69; stroke: #b3de69"/>
     <use xlink:href="#me4fcb877a7" x="369.607287" y="304.56" style="fill: #b3de69; stroke: #b3de69"/>
     <use xlink:href="#me4fcb877a7" x="369.607287" y="302.04" style="fill: #b3de69; stroke: #b3de69"/>
     <use xlink:href="#me4fcb877a7" x="369.607287" y="299.52" style="fill: #b3de69; stroke: #b3de69"/>
     <use xlink:href="#me4fcb877a7" x="369.607287" y="297" style="fill: #b3de69; stroke: #b3de69"/>
     <use xlink:href="#me4fcb877a7" x="369.607287" y="294.48" style="fill: #b3de69; stroke: #b3de69"/>
     <use xlink:href="#me4fcb877a7" x="369.607287" y="291.96" style="fill: #b3de69; stroke: #b3de69"/>
     <use xlink:href="#me4fcb877a7" x="369.607287" y="289.44" style="fill: #b3de69; stroke: #b3de69"/>
     <use xlink:href="#me4fcb877a7" x="369.607287" y="286.92" style="fill: #b3de69; stroke: #b3de69"/>
     <use xlink:href="#me4fcb877a7" x="369.607287" y="284.4" style="fill: #b3de69; stroke: #b3de69"/>
     <use xlink:href="#me4fcb877a7" x="369.607287" y="281.88" style="fill: #b3de69; stroke: #b3de69"/>
     <use xlink:href="#me4fcb877a7" x="369.607287" y="279.36" style="fill: #b3de69; stroke: #b3de69"/>
     <use xlink:href="#me4fcb877a7" x="369.607287" y="276.84" style="fill: #b3de69; stroke: #b3de69"/>
     <use xlink:href="#me4fcb877a7" x="369.607287" y="274.32" style="fill: #b3de69; stroke: #b3de69"/>
     <use xlink:href="#me4fcb877a7" x="369.607287" y="271.8" style="fill: #b3de69; stroke: #b3de69"/>
     <use xlink:href="#me4fcb877a7" x="369.607287" y="269.28" style="fill: #b3de69; stroke: #b3de69"/>
     <use xlink:href="#me4fcb877a7" x="369.607287" y="266.76" style="fill: #b3de69; stroke: #b3de69"/>
     <use xlink:href="#me4fcb877a7" x="369.607287" y="264.24" style="fill: #b3de69; stroke: #b3de69"/>
     <use xlink:href="#me4fcb877a7" x="369.607287" y="261.72" style="fill: #b3de69; stroke: #b3de69"/>
     <use xlink:href="#me4fcb877a7" x="369.607287" y="255.42" style="fill: #b3de69; stroke: #b3de69"/>
     <use xlink:href="#me4fcb877a7" x="369.607287" y="249.12" style="fill: #b3de69; stroke: #b3de69"/>
     <use xlink:href="#me4fcb877a7" x="369.607287" y="242.82" style="fill: #b3de69; stroke: #b3de69"/>
     <use xlink:href="#me4fcb877a7" x="369.607287" y="236.52" style="fill: #b3de69; stroke: #b3de69"/>
     <use xlink:href="#me4fcb877a7" x="369.607287" y="230.22" style="fill: #b3de69; stroke: #b3de69"/>
     <use xlink:href="#me4fcb877a7" x="369.607287" y="223.92" style="fill: #b3de69; stroke: #b3de69"/>
     <use xlink:href="#me4fcb877a7" x="369.607287" y="217.62" style="fill: #b3de69; stroke: #b3de69"/>
     <use xlink:href="#me4fcb877a7" x="369.607287" y="211.32" style="fill: #b3de69; stroke: #b3de69"/>
     <use xlink:href="#me4fcb877a7" x="369.607287" y="205.02" style="fill: #b3de69; stroke: #b3de69"/>
     <use xlink:href="#me4fcb877a7" x="369.607287" y="198.72" style="fill: #b3de69; stroke: #b3de69"/>
     <use xlink:href="#me4fcb877a7" x="369.607287" y="186.12" style="fill: #b3de69; stroke: #b3de69"/>
     <use xlink:href="#me4fcb877a7" x="369.607287" y="173.52" style="fill: #b3de69; stroke: #b3de69"/>
     <use xlink:href="#me4fcb877a7" x="369.607287" y="160.92" style="fill: #b3de69; stroke: #b3de69"/>
     <use xlink:href="#me4fcb877a7" x="369.607287" y="148.32" style="fill: #b3de69; stroke: #b3de69"/>
     <use xlink:href="#me4fcb877a7" x="369.607287" y="135.72" style="fill: #b3de69; stroke: #b3de69"/>
     <use xlink:href="#me4fcb877a7" x="369.607287" y="123.12" style="fill: #b3de69; stroke: #b3de69"/>
     <use xlink:href="#me4fcb877a7" x="368.964592" y="110.52" style="fill: #b3de69; stroke: #b3de69"/>
     <use xlink:href="#me4fcb877a7" x="368.215653" y="97.92" style="fill: #b3de69; stroke: #b3de69"/>
     <use xlink:href="#me4fcb877a7" x="367.426212" y="85.32" style="fill: #b3de69; stroke: #b3de69"/>
     <use xlink:href="#me4fcb877a7" x="365.706449" y="72.72" style="fill: #b3de69; stroke: #b3de69"/>
     <use xlink:href="#me4fcb877a7" x="363.756743" y="60.12" style="fill: #b3de69; stroke: #b3de69"/>
     <use xlink:href="#me4fcb877a7" x="361.505972" y="47.52" style="fill: #b3de69; stroke: #b3de69"/>
     <use xlink:href="#me4fcb877a7" x="357.940426" y="34.92" style="fill: #b3de69; stroke: #b3de69"/>
     <use xlink:href="#me4fcb877a7" x="354.148399" y="22.32" style="fill: #b3de69; stroke: #b3de69"/>
    </g>
   </g>
   <g id="patch_3">
    <path d="M 50.025469 339.84
L 50.025469 7.2
" style="fill: none; stroke: #ffffff; stroke-width: 1.25; stroke-linejoin: miter; stroke-linecap: square"/>
   </g>
   <g id="patch_4">
    <path d="M 384.825469 339.84
L 384.825469 7.2
" style="fill: none; stroke: #ffffff; stroke-width: 1.25; stroke-linejoin: miter; stroke-linecap: square"/>
   </g>
   <g id="patch_5">
    <path d="M 50.025469 339.84
L 384.825469 339.84
" style="fill: none; stroke: #ffffff; stroke-width: 1.25; stroke-linejoin: miter; stroke-linecap: square"/>
   </g>
   <g id="patch_6">
    <path d="M 50.025469 7.2
L 384.825469 7.2
" style="fill: none; stroke: #ffffff; stroke-width: 1.25; stroke-linejoin: miter; stroke-linecap: square"/>
   </g>
   <g id="legend_1">
    <g id="patch_7">
     <path d="M 57.725469 334.34
L 115.5425 334.34
Q 117.7425 334.34 117.7425 332.14
L 117.7425 224.321094
Q 117.7425 222.121094 115.5425 222.121094
L 57.725469 222.121094
Q 55.525469 222.121094 55.525469 224.321094
L 55.525469 332.14
Q 55.525469 334.34 57.725469 334.34
z
" style="opacity: 0.8; stroke: #cccccc; stroke-linejoin: miter"/>
    </g>
    <g id="line2d_20">
     <path d="M 59.925469 230.544687
L 70.925469 230.544687
L 81.925469 230.544687
" style="fill: none; stroke-dasharray: 1.5,2.475; stroke-dashoffset: 0; stroke: #8dd3c7; stroke-width: 1.5"/>
     <g>
      <use xlink:href="#m0fb35a867c" x="70.925469" y="230.544687" style="fill: #8dd3c7; stroke: #8dd3c7"/>
     </g>
    </g>
    <g id="text_15">
     <!-- H2O -->
     <g style="fill: #ffffff" transform="translate(90.725469 234.394687) scale(0.11 -0.11)">
      <defs>
       <path id="ArialMT-48" d="M 513 0
L 513 4581
L 1119 4581
L 1119 2700
L 3500 2700
L 3500 4581
L 4106 4581
L 4106 0
L 3500 0
L 3500 2159
L 1119 2159
L 1119 0
L 513 0
z
" transform="scale(0.015625)"/>
       <path id="ArialMT-4f" d="M 309 2231
Q 309 3372 921 4017
Q 1534 4663 2503 4663
Q 3138 4663 3647 4359
Q 4156 4056 4423 3514
Q 4691 2972 4691 2284
Q 4691 1588 4409 1038
Q 4128 488 3612 205
Q 3097 -78 2500 -78
Q 1853 -78 1343 234
Q 834 547 571 1087
Q 309 1628 309 2231
z
M 934 2222
Q 934 1394 1379 917
Q 1825 441 2497 441
Q 3181 441 3623 922
Q 4066 1403 4066 2288
Q 4066 2847 3877 3264
Q 3688 3681 3323 3911
Q 2959 4141 2506 4141
Q 1863 4141 1398 3698
Q 934 3256 934 2222
z
" transform="scale(0.015625)"/>
      </defs>
      <use xlink:href="#ArialMT-48"/>
      <use xlink:href="#ArialMT-32" transform="translate(72.216797 0)"/>
      <use xlink:href="#ArialMT-4f" transform="translate(127.832031 0)"/>
     </g>
    </g>
    <g id="line2d_21">
     <path d="M 59.925469 246.104531
L 70.925469 246.104531
L 81.925469 246.104531
" style="fill: none; stroke-dasharray: 1.5,2.475; stroke-dashoffset: 0; stroke: #feffb3; stroke-width: 1.5"/>
     <g>
      <use xlink:href="#m5d6b822569" x="70.925469" y="246.104531" style="fill: #feffb3; stroke: #feffb3"/>
     </g>
    </g>
    <g id="text_16">
     <!-- O3 -->
     <g style="fill: #ffffff" transform="translate(90.725469 249.954531) scale(0.11 -0.11)">
      <use xlink:href="#ArialMT-4f"/>
      <use xlink:href="#ArialMT-33" transform="translate(77.783203 0)"/>
     </g>
    </g>
    <g id="line2d_22">
     <path d="M 59.925469 261.664375
L 70.925469 261.664375
L 81.925469 261.664375
" style="fill: none; stroke-dasharray: 1.5,2.475; stroke-dashoffset: 0; stroke: #bfbbd9; stroke-width: 1.5"/>
     <g>
      <use xlink:href="#m22b4e8233c" x="70.925469" y="261.664375" style="fill: #bfbbd9; stroke: #bfbbd9"/>
     </g>
    </g>
    <g id="text_17">
     <!-- N2O -->
     <g style="fill: #ffffff" transform="translate(90.725469 265.514375) scale(0.11 -0.11)">
      <defs>
       <path id="ArialMT-4e" d="M 488 0
L 488 4581
L 1109 4581
L 3516 984
L 3516 4581
L 4097 4581
L 4097 0
L 3475 0
L 1069 3600
L 1069 0
L 488 0
z
" transform="scale(0.015625)"/>
      </defs>
      <use xlink:href="#ArialMT-4e"/>
      <use xlink:href="#ArialMT-32" transform="translate(72.216797 0)"/>
      <use xlink:href="#ArialMT-4f" transform="translate(127.832031 0)"/>
     </g>
    </g>
    <g id="line2d_23">
     <path d="M 59.925469 277.224219
L 70.925469 277.224219
L 81.925469 277.224219
" style="fill: none; stroke-dasharray: 1.5,2.475; stroke-dashoffset: 0; stroke: #fa8174; stroke-width: 1.5"/>
     <g>
      <use xlink:href="#me88c22be2b" x="70.925469" y="277.224219" style="fill: #fa8174; stroke: #fa8174"/>
     </g>
    </g>
    <g id="text_18">
     <!-- CO -->
     <g style="fill: #ffffff" transform="translate(90.725469 281.074219) scale(0.11 -0.11)">
      <defs>
       <path id="ArialMT-43" d="M 3763 1606
L 4369 1453
Q 4178 706 3683 314
Q 3188 -78 2472 -78
Q 1731 -78 1267 223
Q 803 525 561 1097
Q 319 1669 319 2325
Q 319 3041 592 3573
Q 866 4106 1370 4382
Q 1875 4659 2481 4659
Q 3169 4659 3637 4309
Q 4106 3959 4291 3325
L 3694 3184
Q 3534 3684 3231 3912
Q 2928 4141 2469 4141
Q 1941 4141 1586 3887
Q 1231 3634 1087 3207
Q 944 2781 944 2328
Q 944 1744 1114 1308
Q 1284 872 1643 656
Q 2003 441 2422 441
Q 2931 441 3284 734
Q 3638 1028 3763 1606
z
" transform="scale(0.015625)"/>
      </defs>
      <use xlink:href="#ArialMT-43"/>
      <use xlink:href="#ArialMT-4f" transform="translate(72.216797 0)"/>
     </g>
    </g>
    <g id="line2d_24">
     <path d="M 59.925469 292.784062
L 70.925469 292.784062
L 81.925469 292.784062
" style="fill: none; stroke-dasharray: 1.5,2.475; stroke-dashoffset: 0; stroke: #81b1d2; stroke-width: 1.5"/>
     <g>
      <use xlink:href="#m14908207d4" x="70.925469" y="292.784062" style="fill: #81b1d2; stroke: #81b1d2"/>
     </g>
    </g>
    <g id="text_19">
     <!-- CH4 -->
     <g style="fill: #ffffff" transform="translate(90.725469 296.634062) scale(0.11 -0.11)">
      <use xlink:href="#ArialMT-43"/>
      <use xlink:href="#ArialMT-48" transform="translate(72.216797 0)"/>
      <use xlink:href="#ArialMT-34" transform="translate(144.433594 0)"/>
     </g>
    </g>
    <g id="line2d_25">
     <path d="M 59.925469 308.343906
L 70.925469 308.343906
L 81.925469 308.343906
" style="fill: none; stroke-dasharray: 1.5,2.475; stroke-dashoffset: 0; stroke: #fdb462; stroke-width: 1.5"/>
     <g>
      <use xlink:href="#me1b8f12737" x="70.925469" y="308.343906" style="fill: #fdb462; stroke: #fdb462"/>
     </g>
    </g>
    <g id="text_20">
     <!-- CO2 -->
     <g style="fill: #ffffff" transform="translate(90.725469 312.193906) scale(0.11 -0.11)">
      <use xlink:href="#ArialMT-43"/>
      <use xlink:href="#ArialMT-4f" transform="translate(72.216797 0)"/>
      <use xlink:href="#ArialMT-32" transform="translate(150 0)"/>
     </g>
    </g>
    <g id="line2d_26">
     <path d="M 59.925469 323.90375
L 70.925469 323.90375
L 81.925469 323.90375
" style="fill: none; stroke-dasharray: 1.5,2.475; stroke-dashoffset: 0; stroke: #b3de69; stroke-width: 1.5"/>
     <g>
      <use xlink:href="#me4fcb877a7" x="70.925469" y="323.90375" style="fill: #b3de69; stroke: #b3de69"/>
     </g>
    </g>
    <g id="text_21">
     <!-- O2 -->
     <g style="fill: #ffffff" transform="translate(90.725469 327.75375) scale(0.11 -0.11)">
      <use xlink:href="#ArialMT-4f"/>
      <use xlink:href="#ArialMT-32" transform="translate(77.783203 0)"/>
     </g>
    </g>
   </g>
  </g>
 </g>
 <defs>
  <clipPath id="p49b9d4b00e">
   <rect x="50.025469" y="7.2" width="334.8" height="332.64"/>
  </clipPath>
 </defs>
</svg>
